{"asset":{"version":"2.0","generator":"Blockbench 5.0.5 glTF exporter"},"scenes":[{"nodes":[18],"name":"blockbench_export"}],"scene":0,"nodes":[{"rotation":[0.7071067811865475,0,0,0.7071067811865476],"translation":[0,0,-0.06874999999999998],"name":"cuboid","mesh":0},{"translation":[0.1625,-0.2875,0.19374999999999998],"name":"group2","children":[0]},{"rotation":[0.7071067811865475,0,0,0.7071067811865476],"translation":[-0.037500000000000006,0.03125,-0.05625000000000002],"name":"cuboid","mesh":1},{"translation":[-0.175,-0.31875,0.11875000000000002],"name":"group3","children":[2]},{"rotation":[0.08715574274765817,0,0,0.9961946980917455],"translation":[-0.2125,-0.06874999999999998,0],"name":"cuboid","mesh":2},{"rotation":[0.08715574274765817,0,0,0.9961946980917455],"translation":[0.1625,-0.06874999999999998,0],"name":"cuboid","mesh":3},{"translation":[0.025,0.19374999999999998,0.1875],"name":"patas traseras","children":[1,3,4,5]},{"rotation":[0,0.07845909572784494,0,0.996917333733128],"translation":[0.125,0.2875,-0.184375],"name":"cuboid","mesh":4},{"rotation":[0,-0.07845909572784494,0,0.996917333733128],"translation":[-0.0625,0.2875,-0.184375],"name":"cuboid","mesh":5},{"rotation":[-0.21643961393810288,0,0,0.9762960071199334],"translation":[0.03125,0.006249999999999978,-0.44687499999999997],"name":"cuboid","mesh":6},{"rotation":[-0.8191520442889917,0,0,0.5735764363510462],"translation":[0.03125,0.06874999999999998,-0.246875],"name":"sphere","mesh":7},{"translation":[-0.03125,0.43125,-0.315625],"name":"cabeza","children":[7,8,9,10]},{"rotation":[0.043619387365336,0,0,0.9990482215818578],"translation":[0.125,0,-0.0625],"name":"cuboid","mesh":8},{"rotation":[0.043619387365336,0,0,0.9990482215818578],"translation":[-0.25,0,-0.0625],"name":"cuboid","mesh":9},{"translation":[0.0625,0.1875,-0.234375],"name":"patas delanteras","children":[12,13]},{"rotation":[0.06540312923014306,0,0,0.9978589232386035],"translation":[0,-0.46875,0.6875],"name":"cuboid","mesh":10},{"rotation":[-0.6087614290087207,0,0,0.7933533402912352],"translation":[0,-0.09375,0.25],"name":"sphere","mesh":11},{"translation":[0,0.34375,-0.25],"name":"cuerpo","children":[15,16]},{"translation":[0,0.125,0],"name":"group","children":[6,11,14,17]}],"bufferViews":[{"buffer":0,"byteOffset":0,"byteLength":288,"target":34962,"byteStride":12},{"buffer":0,"byteOffset":288,"byteLength":288,"target":34962,"byteStride":12},{"buffer":0,"byteOffset":576,"byteLength":192,"target":34962,"byteStride":8},{"buffer":0,"byteOffset":768,"byteLength":72,"target":34963},{"buffer":0,"byteOffset":840,"byteLength":288,"target":34962,"byteStride":12},{"buffer":0,"byteOffset":1128,"byteLength":288,"target":34962,"byteStride":12},{"buffer":0,"byteOffset":1416,"byteLength":192,"target":34962,"byteStride":8},{"buffer":0,"byteOffset":1608,"byteLength":72,"target":34963},{"buffer":0,"byteOffset":1680,"byteLength":288,"target":34962,"byteStride":12},{"buffer":0,"byteOffset":1968,"byteLength":288,"target":34962,"byteStride":12},{"buffer":0,"byteOffset":2256,"byteLength":192,"target":34962,"byteStride":8},{"buffer":0,"byteOffset":2448,"byteLength":72,"target":34963},{"buffer":0,"byteOffset":2520,"byteLength":288,"target":34962,"byteStride":12},{"buffer":0,"byteOffset":2808,"byteLength":288,"target":34962,"byteStride":12},{"buffer":0,"byteOffset":3096,"byteLength":192,"target":34962,"byteStride":8},{"buffer":0,"byteOffset":3288,"byteLength":72,"target":34963},{"buffer":0,"byteOffset":3360,"byteLength":288,"target":34962,"byteStride":12},{"buffer":0,"byteOffset":3648,"byteLength":288,"target":34962,"byteStride":12},{"buffer":0,"byteOffset":3936,"byteLength":192,"target":34962,"byteStride":8},{"buffer":0,"byteOffset":4128,"byteLength":72,"target":34963},{"buffer":0,"byteOffset":4200,"byteLength":288,"target":34962,"byteStride":12},{"buffer":0,"byteOffset":4488,"byteLength":288,"target":34962,"byteStride":12},{"buffer":0,"byteOffset":4776,"byteLength":192,"target":34962,"byteStride":8},{"buffer":0,"byteOffset":4968,"byteLength":72,"target":34963},{"buffer":0,"byteOffset":5040,"byteLength":288,"target":34962,"byteStride":12},{"buffer":0,"byteOffset":5328,"byteLength":288,"target":34962,"byteStride":12},{"buffer":0,"byteOffset":5616,"byteLength":192,"target":34962,"byteStride":8},{"buffer":0,"byteOffset":5808,"byteLength":72,"target":34963},{"buffer":0,"byteOffset":5880,"byteLength":3168,"target":34962,"byteStride":12},{"buffer":0,"byteOffset":9048,"byteLength":3168,"target":34962,"byteStride":12},{"buffer":0,"byteOffset":12216,"byteLength":2112,"target":34962,"byteStride":8},{"buffer":0,"byteOffset":14328,"byteLength":720,"target":34963},{"buffer":0,"byteOffset":15048,"byteLength":288,"target":34962,"byteStride":12},{"buffer":0,"byteOffset":15336,"byteLength":288,"target":34962,"byteStride":12},{"buffer":0,"byteOffset":15624,"byteLength":192,"target":34962,"byteStride":8},{"buffer":0,"byteOffset":15816,"byteLength":72,"target":34963},{"buffer":0,"byteOffset":15888,"byteLength":288,"target":34962,"byteStride":12},{"buffer":0,"byteOffset":16176,"byteLength":288,"target":34962,"byteStride":12},{"buffer":0,"byteOffset":16464,"byteLength":192,"target":34962,"byteStride":8},{"buffer":0,"byteOffset":16656,"byteLength":72,"target":34963},{"buffer":0,"byteOffset":16728,"byteLength":288,"target":34962,"byteStride":12},{"buffer":0,"byteOffset":17016,"byteLength":288,"target":34962,"byteStride":12},{"buffer":0,"byteOffset":17304,"byteLength":192,"target":34962,"byteStride":8},{"buffer":0,"byteOffset":17496,"byteLength":72,"target":34963},{"buffer":0,"byteOffset":17568,"byteLength":3168,"target":34962,"byteStride":12},{"buffer":0,"byteOffset":20736,"byteLength":3168,"target":34962,"byteStride":12},{"buffer":0,"byteOffset":23904,"byteLength":2112,"target":34962,"byteStride":8},{"buffer":0,"byteOffset":26016,"byteLength":720,"target":34963},{"buffer":0,"byteOffset":26736,"byteLength":32},{"buffer":0,"byteOffset":26768,"byteLength":128},{"buffer":0,"byteOffset":26896,"byteLength":32},{"buffer":0,"byteOffset":26928,"byteLength":96},{"buffer":0,"byteOffset":27024,"byteLength":8},{"buffer":0,"byteOffset":27032,"byteLength":32},{"buffer":0,"byteOffset":27064,"byteLength":16},{"buffer":0,"byteOffset":27080,"byteLength":48},{"buffer":0,"byteOffset":27128,"byteLength":16},{"buffer":0,"byteOffset":27144,"byteLength":64},{"buffer":0,"byteOffset":27208,"byteLength":16},{"buffer":0,"byteOffset":27224,"byteLength":48},{"buffer":0,"byteOffset":27272,"byteLength":28},{"buffer":0,"byteOffset":27300,"byteLength":112},{"buffer":0,"byteOffset":27412,"byteLength":20},{"buffer":0,"byteOffset":27432,"byteLength":60},{"buffer":0,"byteOffset":27492,"byteLength":16},{"buffer":0,"byteOffset":27508,"byteLength":64},{"buffer":0,"byteOffset":27572,"byteLength":16},{"buffer":0,"byteOffset":27588,"byteLength":48},{"buffer":0,"byteOffset":27636,"byteLength":20},{"buffer":0,"byteOffset":27656,"byteLength":80},{"buffer":0,"byteOffset":27736,"byteLength":24},{"buffer":0,"byteOffset":27760,"byteLength":72},{"buffer":0,"byteOffset":27832,"byteLength":20},{"buffer":0,"byteOffset":27852,"byteLength":80},{"buffer":0,"byteOffset":27932,"byteLength":24},{"buffer":0,"byteOffset":27956,"byteLength":72},{"buffer":0,"byteOffset":28028,"byteLength":16},{"buffer":0,"byteOffset":28044,"byteLength":64},{"buffer":0,"byteOffset":28108,"byteLength":16},{"buffer":0,"byteOffset":28124,"byteLength":48},{"buffer":0,"byteOffset":28172,"byteLength":16},{"buffer":0,"byteOffset":28188,"byteLength":48},{"buffer":0,"byteOffset":28236,"byteLength":16},{"buffer":0,"byteOffset":28252,"byteLength":64},{"buffer":0,"byteOffset":28316,"byteLength":16},{"buffer":0,"byteOffset":28332,"byteLength":64},{"buffer":0,"byteOffset":28396,"byteLength":16},{"buffer":0,"byteOffset":28412,"byteLength":64},{"buffer":0,"byteOffset":28476,"byteLength":16},{"buffer":0,"byteOffset":28492,"byteLength":64}],"buffers":[{"byteLength":28556,"uri":"data:application/octet-stream;base64,"}],"accessors":[{"bufferView":0,"componentType":5126,"count":24,"max":[0.046875,0.0625,0.015625],"min":[-0.046875,-0.3125,-0.015625],"type":"VEC3"},{"bufferView":1,"componentType":5126,"count":24,"max":[1,1,1],"min":[-1,-1,-1],"type":"VEC3"},{"bufferView":2,"componentType":5126,"count":24,"max":[0.625,0.6875],"min":[0.25,0],"type":"VEC2"},{"bufferView":3,"componentType":5123,"count":36,"max":[23],"min":[0],"type":"SCALAR"},{"bufferView":4,"componentType":5126,"count":24,"max":[0.046875,0.125,0.015625],"min":[-0.046875,-0.25,-0.015625],"type":"VEC3"},{"bufferView":5,"componentType":5126,"count":24,"max":[1,1,1],"min":[-1,-1,-1],"type":"VEC3"},{"bufferView":6,"componentType":5126,"count":24,"max":[0.625,0.6875],"min":[0.171875,0.109375],"type":"VEC2"},{"bufferView":7,"componentType":5123,"count":36,"max":[23],"min":[0],"type":"SCALAR"},{"bufferView":8,"componentType":5126,"count":24,"max":[0.046875,0.06724750250577927,0.24176500737667084],"min":[-0.046875,-0.18275250494480133,-0.13323499262332916],"type":"VEC3"},{"bufferView":9,"componentType":5126,"count":24,"max":[1,1,1],"min":[-1,-1,-1],"type":"VEC3"},{"bufferView":10,"componentType":5126,"count":24,"max":[0.5625,0.53125],"min":[0.125,0],"type":"VEC2"},{"bufferView":11,"componentType":5123,"count":36,"max":[23],"min":[0],"type":"SCALAR"},{"bufferView":12,"componentType":5126,"count":24,"max":[0.046875,0.06724750250577927,0.24176500737667084],"min":[-0.046875,-0.18275250494480133,-0.13323499262332916],"type":"VEC3"},{"bufferView":13,"componentType":5126,"count":24,"max":[1,1,1],"min":[-1,-1,-1],"type":"VEC3"},{"bufferView":14,"componentType":5126,"count":24,"max":[0.5,0.609375],"min":[0.09375,0.21875],"type":"VEC2"},{"bufferView":15,"componentType":5123,"count":36,"max":[23],"min":[0],"type":"SCALAR"},{"bufferView":16,"componentType":5126,"count":24,"max":[0.046875,0.1875,0.015625],"min":[-0.046875,-0.0625,-0.015625],"type":"VEC3"},{"bufferView":17,"componentType":5126,"count":24,"max":[1,1,1],"min":[-1,-1,-1],"type":"VEC3"},{"bufferView":18,"componentType":5126,"count":24,"max":[0.640625,0.65625],"min":[0.3125,0],"type":"VEC2"},{"bufferView":19,"componentType":5123,"count":36,"max":[23],"min":[0],"type":"SCALAR"},{"bufferView":20,"componentType":5126,"count":24,"max":[0.046875,0.1875,0.015625],"min":[-0.046875,-0.0625,-0.015625],"type":"VEC3"},{"bufferView":21,"componentType":5126,"count":24,"max":[1,1,1],"min":[-1,-1,-1],"type":"VEC3"},{"bufferView":22,"componentType":5126,"count":24,"max":[0.625,0.625],"min":[0,0.109375],"type":"VEC2"},{"bufferView":23,"componentType":5123,"count":36,"max":[23],"min":[0],"type":"SCALAR"},{"bufferView":24,"componentType":5126,"count":24,"max":[0.03125,0.03125,0.03125],"min":[-0.03125,-0.03125,-0.03125],"type":"VEC3"},{"bufferView":25,"componentType":5126,"count":24,"max":[1,1,1],"min":[-1,-1,-1],"type":"VEC3"},{"bufferView":26,"componentType":5126,"count":24,"max":[0.625,0.625],"min":[0.34375,0.15625],"type":"VEC2"},{"bufferView":27,"componentType":5123,"count":36,"max":[23],"min":[0],"type":"SCALAR"},{"bufferView":28,"componentType":5126,"count":264,"max":[0.21250000596046448,0.21168875694274902,0.20000000298023224],"min":[-0.21250000596046448,-0.26249998807907104,-0.20000000298023224],"type":"VEC3"},{"bufferView":29,"componentType":5126,"count":264,"max":[0.9749899506568909,0.9994294047355652,0.9777507781982422],"min":[-0.9749889373779297,-0.9538083076477051,-0.9777507781982422],"type":"VEC3"},{"bufferView":30,"componentType":5126,"count":264,"max":[0.5910670161247253,0.484375],"min":[0.0022878125309944153,0],"type":"VEC2"},{"bufferView":31,"componentType":5123,"count":360,"max":[263],"min":[0],"type":"SCALAR"},{"bufferView":32,"componentType":5126,"count":24,"max":[0.046875,0.06392687559127808,0.0795581266283989],"min":[-0.046875,-0.3110731244087219,-0.014191875234246254],"type":"VEC3"},{"bufferView":33,"componentType":5126,"count":24,"max":[1,1,1],"min":[-1,-1,-1],"type":"VEC3"},{"bufferView":34,"componentType":5126,"count":24,"max":[0.34375,0.59375],"min":[0,0.1875],"type":"VEC2"},{"bufferView":35,"componentType":5123,"count":36,"max":[23],"min":[0],"type":"SCALAR"},{"bufferView":36,"componentType":5126,"count":24,"max":[0.046875,0.06392687559127808,0.0795581266283989],"min":[-0.046875,-0.3110731244087219,-0.014191875234246254],"type":"VEC3"},{"bufferView":37,"componentType":5126,"count":24,"max":[1,1,1],"min":[-1,-1,-1],"type":"VEC3"},{"bufferView":38,"componentType":5126,"count":24,"max":[0.625,0.59375],"min":[0.046875,0.109375],"type":"VEC2"},{"bufferView":39,"componentType":5123,"count":36,"max":[23],"min":[0],"type":"SCALAR"},{"bufferView":40,"componentType":5126,"count":24,"max":[0.03125,0.28125,0.03125],"min":[-0.03125,0.21875,-0.03125],"type":"VEC3"},{"bufferView":41,"componentType":5126,"count":24,"max":[1,1,1],"min":[-1,-1,-1],"type":"VEC3"},{"bufferView":42,"componentType":5126,"count":24,"max":[0.625,0.625],"min":[0.046875,0.0625],"type":"VEC2"},{"bufferView":43,"componentType":5123,"count":36,"max":[23],"min":[0],"type":"SCALAR"},{"bufferView":44,"componentType":5126,"count":264,"max":[0.25,0.4491887390613556,0.25],"min":[-0.25,-0.5,-0.25],"type":"VEC3"},{"bufferView":45,"componentType":5126,"count":264,"max":[0.9911443591117859,0.9984022378921509,0.9911443591117859],"min":[-0.9911443591117859,-0.8814118504524231,-0.9911443591117859],"type":"VEC3"},{"bufferView":46,"componentType":5126,"count":264,"max":[0.5910670161247253,0.484375],"min":[0.0022878125309944153,0],"type":"VEC2"},{"bufferView":47,"componentType":5123,"count":360,"max":[263],"min":[0],"type":"SCALAR"},{"bufferView":48,"componentType":5126,"count":8,"max":[0.484499990940094],"min":[0],"type":"SCALAR"},{"bufferView":49,"componentType":5126,"count":8,"max":[0.061048541218042374,0,0,1],"min":[-0.4809887707233429,0,0,0.8767267465591431],"type":"VEC4"},{"bufferView":50,"componentType":5126,"count":8,"max":[0.484499990940094],"min":[0],"type":"SCALAR"},{"bufferView":51,"componentType":5126,"count":8,"max":[0,0.4375,0.01875000074505806],"min":[0,0.10625000298023224,0],"type":"VEC3"},{"bufferView":52,"componentType":5126,"count":2,"max":[0.42636001110076904],"min":[0],"type":"SCALAR"},{"bufferView":53,"componentType":5126,"count":2,"max":[0.08715574443340302,0,0,1],"min":[0,0,0,0.9961947202682495],"type":"VEC4"},{"bufferView":54,"componentType":5126,"count":4,"max":[0.484499990940094],"min":[0.058139998465776443],"type":"SCALAR"},{"bufferView":55,"componentType":5126,"count":4,"max":[0.02500000037252903,0.3062500059604645,0.1875],"min":[0.02500000037252903,0.19374999403953552,0.1875],"type":"VEC3"},{"bufferView":56,"componentType":5126,"count":4,"max":[0.484499990940094],"min":[0.058139998465776443],"type":"SCALAR"},{"bufferView":57,"componentType":5126,"count":4,"max":[0.28401535749435425,0,0,1],"min":[0,0,0,0.9588197469711304],"type":"VEC4"},{"bufferView":58,"componentType":5126,"count":4,"max":[0.484499990940094],"min":[0.058139998465776443],"type":"SCALAR"},{"bufferView":59,"componentType":5126,"count":4,"max":[-0.03125,0.5874999761581421,-0.31562501192092896],"min":[-0.03125,0.4312500059604645,-0.40937501192092896],"type":"VEC3"},{"bufferView":60,"componentType":5126,"count":7,"max":[0.484499990940094],"min":[0],"type":"SCALAR"},{"bufferView":61,"componentType":5126,"count":7,"max":[0.8616291880607605,0,0,0.9961947202682495],"min":[-0.08715574443340302,0,0,0.507538378238678],"type":"VEC4"},{"bufferView":62,"componentType":5126,"count":5,"max":[0.484499990940094],"min":[0.058139998465776443],"type":"SCALAR"},{"bufferView":63,"componentType":5126,"count":5,"max":[0.0625,0.6000000238418579,-0.234375],"min":[0.0625,0.1875,-0.3531250059604645],"type":"VEC3"},{"bufferView":64,"componentType":5126,"count":4,"max":[0.484499990940094],"min":[0.058139998465776443],"type":"SCALAR"},{"bufferView":65,"componentType":5126,"count":4,"max":[0.13052618503570557,0,0,1],"min":[0,0,0,0.9914448857307434],"type":"VEC4"},{"bufferView":66,"componentType":5126,"count":4,"max":[0.484499990940094],"min":[0.058139998465776443],"type":"SCALAR"},{"bufferView":67,"componentType":5126,"count":4,"max":[0,0.643750011920929,-0.25],"min":[0,0.34375,-0.25],"type":"VEC3"},{"bufferView":68,"componentType":5126,"count":5,"max":[0.484499990940094],"min":[0.058139998465776443],"type":"SCALAR"},{"bufferView":69,"componentType":5126,"count":5,"max":[0,0,0,1],"min":[-0.9762960076332092,0,0,0.2164396196603775],"type":"VEC4"},{"bufferView":70,"componentType":5126,"count":6,"max":[0.484499990940094],"min":[0.058139998465776443],"type":"SCALAR"},{"bufferView":71,"componentType":5126,"count":6,"max":[-0.17499999701976776,-0.10249999910593033,0.21250000596046448],"min":[-0.17499999701976776,-0.3187499940395355,0.11874999850988388],"type":"VEC3"},{"bufferView":72,"componentType":5126,"count":5,"max":[0.484499990940094],"min":[0.058139998465776443],"type":"SCALAR"},{"bufferView":73,"componentType":5126,"count":5,"max":[0,0,0,1],"min":[-0.9681476354598999,0,0,0.2503800094127655],"type":"VEC4"},{"bufferView":74,"componentType":5126,"count":6,"max":[0.484499990940094],"min":[0.058139998465776443],"type":"SCALAR"},{"bufferView":75,"componentType":5126,"count":6,"max":[0.16249999403953552,-0.06875000149011612,0.19374999403953552],"min":[0.16249999403953552,-0.2874999940395355,0.16249999403953552],"type":"VEC3"},{"bufferView":76,"componentType":5126,"count":4,"max":[4.203149795532227],"min":[0],"type":"SCALAR"},{"bufferView":77,"componentType":5126,"count":4,"max":[0,0,0,1],"min":[-0.026176948100328445,0,0,0.9996573328971863],"type":"VEC4"},{"bufferView":78,"componentType":5126,"count":4,"max":[4.203149795532227],"min":[0],"type":"SCALAR"},{"bufferView":79,"componentType":5126,"count":4,"max":[0,0.125,0],"min":[0,0.09375,0],"type":"VEC3"},{"bufferView":80,"componentType":5126,"count":4,"max":[4.203149795532227],"min":[0],"type":"SCALAR"},{"bufferView":81,"componentType":5126,"count":4,"max":[1,1,1],"min":[0.800000011920929,0.7300000190734863,1],"type":"VEC3"},{"bufferView":82,"componentType":5126,"count":4,"max":[4.203149795532227],"min":[0],"type":"SCALAR"},{"bufferView":83,"componentType":5126,"count":4,"max":[0.08715574443340302,0,0,0.9961947202682495],"min":[-0.15212339162826538,0,0,0.9883615374565125],"type":"VEC4"},{"bufferView":84,"componentType":5126,"count":4,"max":[4.203149795532227],"min":[0],"type":"SCALAR"},{"bufferView":85,"componentType":5126,"count":4,"max":[0.15212339162826538,0,0,0.9997619986534119],"min":[-0.02181488461792469,0,0,0.9883615374565125],"type":"VEC4"},{"bufferView":86,"componentType":5126,"count":4,"max":[4.203149795532227],"min":[0],"type":"SCALAR"},{"bufferView":87,"componentType":5126,"count":4,"max":[0,0,0,1],"min":[-0.0523359552025795,0,0,0.9986295104026794],"type":"VEC4"},{"bufferView":88,"componentType":5126,"count":4,"max":[4.203149795532227],"min":[0],"type":"SCALAR"},{"bufferView":89,"componentType":5126,"count":4,"max":[0,0,0,1],"min":[-0.04361938685178757,0,0,0.9990482330322266],"type":"VEC4"}],"materials":[{"pbrMetallicRoughness":{"metallicFactor":0,"roughnessFactor":1,"baseColorTexture":{"index":0}},"alphaMode":"MASK","alphaCutoff":0.05,"doubleSided":true}],"textures":[{"sampler":0,"source":0,"name":"texture.png"}],"samplers":[{"magFilter":9728,"minFilter":9728,"wrapS":33071,"wrapT":33071}],"images":[{"mimeType":"image/png","uri":"data:image/png;base64,"}],"meshes":[{"primitives":[{"mode":4,"attributes":{"POSITION":0,"NORMAL":1,"TEXCOORD_0":2},"indices":3,"material":0}]},{"primitives":[{"mode":4,"attributes":{"POSITION":4,"NORMAL":5,"TEXCOORD_0":6},"indices":7,"material":0}]},{"primitives":[{"mode":4,"attributes":{"POSITION":8,"NORMAL":9,"TEXCOORD_0":10},"indices":11,"material":0}]},{"primitives":[{"mode":4,"attributes":{"POSITION":12,"NORMAL":13,"TEXCOORD_0":14},"indices":15,"material":0}]},{"primitives":[{"mode":4,"attributes":{"POSITION":16,"NORMAL":17,"TEXCOORD_0":18},"indices":19,"material":0}]},{"primitives":[{"mode":4,"attributes":{"POSITION":20,"NORMAL":21,"TEXCOORD_0":22},"indices":23,"material":0}]},{"primitives":[{"mode":4,"attributes":{"POSITION":24,"NORMAL":25,"TEXCOORD_0":26},"indices":27,"material":0}]},{"primitives":[{"mode":4,"attributes":{"POSITION":28,"NORMAL":29,"TEXCOORD_0":30},"indices":31,"material":0}]},{"primitives":[{"mode":4,"attributes":{"POSITION":32,"NORMAL":33,"TEXCOORD_0":34},"indices":35,"material":0}]},{"primitives":[{"mode":4,"attributes":{"POSITION":36,"NORMAL":37,"TEXCOORD_0":38},"indices":39,"material":0}]},{"primitives":[{"mode":4,"attributes":{"POSITION":40,"NORMAL":41,"TEXCOORD_0":42},"indices":43,"material":0}]},{"primitives":[{"mode":4,"attributes":{"POSITION":44,"NORMAL":45,"TEXCOORD_0":46},"indices":47,"material":0}]}],"animations":[{"name":"jumping/walking","samplers":[{"input":48,"output":49,"interpolation":"LINEAR"},{"input":50,"output":51,"interpolation":"LINEAR"},{"input":52,"output":53,"interpolation":"LINEAR"},{"input":54,"output":55,"interpolation":"LINEAR"},{"input":56,"output":57,"interpolation":"LINEAR"},{"input":58,"output":59,"interpolation":"LINEAR"},{"input":60,"output":61,"interpolation":"LINEAR"},{"input":62,"output":63,"interpolation":"LINEAR"},{"input":64,"output":65,"interpolation":"LINEAR"},{"input":66,"output":67,"interpolation":"LINEAR"},{"input":68,"output":69,"interpolation":"LINEAR"},{"input":70,"output":71,"interpolation":"LINEAR"},{"input":72,"output":73,"interpolation":"LINEAR"},{"input":74,"output":75,"interpolation":"LINEAR"}],"channels":[{"sampler":0,"target":{"node":18,"path":"rotation"}},{"sampler":1,"target":{"node":18,"path":"translation"}},{"sampler":2,"target":{"node":6,"path":"rotation"}},{"sampler":3,"target":{"node":6,"path":"translation"}},{"sampler":4,"target":{"node":11,"path":"rotation"}},{"sampler":5,"target":{"node":11,"path":"translation"}},{"sampler":6,"target":{"node":14,"path":"rotation"}},{"sampler":7,"target":{"node":14,"path":"translation"}},{"sampler":8,"target":{"node":17,"path":"rotation"}},{"sampler":9,"target":{"node":17,"path":"translation"}},{"sampler":10,"target":{"node":3,"path":"rotation"}},{"sampler":11,"target":{"node":3,"path":"translation"}},{"sampler":12,"target":{"node":1,"path":"rotation"}},{"sampler":13,"target":{"node":1,"path":"translation"}}]},{"name":"stand by","samplers":[{"input":76,"output":77,"interpolation":"LINEAR"},{"input":78,"output":79,"interpolation":"LINEAR"},{"input":80,"output":81,"interpolation":"LINEAR"},{"input":82,"output":83,"interpolation":"LINEAR"},{"input":84,"output":85,"interpolation":"LINEAR"},{"input":86,"output":87,"interpolation":"LINEAR"},{"input":88,"output":89,"interpolation":"LINEAR"}],"channels":[{"sampler":0,"target":{"node":18,"path":"rotation"}},{"sampler":1,"target":{"node":18,"path":"translation"}},{"sampler":2,"target":{"node":18,"path":"scale"}},{"sampler":3,"target":{"node":11,"path":"rotation"}},{"sampler":4,"target":{"node":14,"path":"rotation"}},{"sampler":5,"target":{"node":1,"path":"rotation"}},{"sampler":6,"target":{"node":3,"path":"rotation"}}]}]}