{"asset":{"version":"2.0","generator":"Blockbench 5.0.5 glTF exporter"},"scenes":[{"nodes":[4,6],"name":"blockbench_export"}],"scene":0,"nodes":[{"translation":[0,0.375,0],"name":"cylinder","mesh":0},{"translation":[0,1.375,0],"name":"sphere","mesh":1},{"translation":[0,1.4375,0],"name":"circle","mesh":2},{"rotation":[0.7071067811865475,0,0,0.7071067811865476],"translation":[0,0.9375,-0.25],"name":"beveled_cuboid","mesh":3},{"translation":[0,-0.375,0],"name":"group","children":[0,1,2,3]},{"rotation":[0,0,0.7071067811865475,0.7071067811865476],"translation":[0.25,0.6875,0],"name":"cylinder","mesh":4},{"name":"group2","children":[5]}],"bufferViews":[{"buffer":0,"byteOffset":0,"byteLength":1440,"target":34962,"byteStride":12},{"buffer":0,"byteOffset":1440,"byteLength":1440,"target":34962,"byteStride":12},{"buffer":0,"byteOffset":2880,"byteLength":960,"target":34962,"byteStride":8},{"buffer":0,"byteOffset":3840,"byteLength":288,"target":34963},{"buffer":0,"byteOffset":4128,"byteLength":3168,"target":34962,"byteStride":12},{"buffer":0,"byteOffset":7296,"byteLength":3168,"target":34962,"byteStride":12},{"buffer":0,"byteOffset":10464,"byteLength":2112,"target":34962,"byteStride":8},{"buffer":0,"byteOffset":12576,"byteLength":720,"target":34963},{"buffer":0,"byteOffset":13296,"byteLength":432,"target":34962,"byteStride":12},{"buffer":0,"byteOffset":13728,"byteLength":432,"target":34962,"byteStride":12},{"buffer":0,"byteOffset":14160,"byteLength":288,"target":34962,"byteStride":8},{"buffer":0,"byteOffset":14448,"byteLength":72,"target":34963},{"buffer":0,"byteOffset":14520,"byteLength":1152,"target":34962,"byteStride":12},{"buffer":0,"byteOffset":15672,"byteLength":1152,"target":34962,"byteStride":12},{"buffer":0,"byteOffset":16824,"byteLength":768,"target":34962,"byteStride":8},{"buffer":0,"byteOffset":17592,"byteLength":264,"target":34963},{"buffer":0,"byteOffset":17856,"byteLength":1440,"target":34962,"byteStride":12},{"buffer":0,"byteOffset":19296,"byteLength":1440,"target":34962,"byteStride":12},{"buffer":0,"byteOffset":20736,"byteLength":960,"target":34962,"byteStride":8},{"buffer":0,"byteOffset":21696,"byteLength":288,"target":34963},{"buffer":0,"byteOffset":21984,"byteLength":28},{"buffer":0,"byteOffset":22012,"byteLength":84},{"buffer":0,"byteOffset":22096,"byteLength":28},{"buffer":0,"byteOffset":22124,"byteLength":84}],"buffers":[{"byteLength":22208,"uri":"data:application/octet-stream;base64,"}],"accessors":[{"bufferView":0,"componentType":5126,"count":120,"max":[0.046875,0.5625,0.046875],"min":[-0.046875,-0.0625,-0.046875],"type":"VEC3"},{"bufferView":1,"componentType":5126,"count":120,"max":[1,1,1],"min":[-1,-1,-1],"type":"VEC3"},{"bufferView":2,"componentType":5126,"count":120,"max":[0.51171875,0.625],"min":[0.08432812243700027,0],"type":"VEC2"},{"bufferView":3,"componentType":5123,"count":144,"max":[119],"min":[0],"type":"SCALAR"},{"bufferView":4,"componentType":5126,"count":264,"max":[0.25,0.25,0.25],"min":[-0.25,-0.25,-0.25],"type":"VEC3"},{"bufferView":5,"componentType":5126,"count":264,"max":[0.9659256339073181,0.9659256339073181,0.9659256339073181],"min":[-0.9659256339073181,-0.9659256339073181,-0.9659256339073181],"type":"VEC3"},{"bufferView":6,"componentType":5126,"count":264,"max":[0.55476313829422,0.4717566967010498],"min":[0.0025237714871764183,0.07665616273880005],"type":"VEC2"},{"bufferView":7,"componentType":5123,"count":360,"max":[263],"min":[0],"type":"SCALAR"},{"bufferView":8,"componentType":5126,"count":36,"max":[0.375,0,0.4375],"min":[-0.375,-0.0625,-0.4375],"type":"VEC3"},{"bufferView":9,"componentType":5126,"count":36,"max":[0.08242146670818329,1,0],"min":[-0.08242146670818329,0.9631398320198059,-0.2567484378814697],"type":"VEC3"},{"bufferView":10,"componentType":5126,"count":36,"max":[0.2588701546192169,0.5351806879043579],"min":[0.0078125,0],"type":"VEC2"},{"bufferView":11,"componentType":5123,"count":36,"max":[35],"min":[0],"type":"SCALAR"},{"bufferView":12,"componentType":5126,"count":96,"max":[0.13750000298023224,0.35624998807907104,0.375],"min":[-0.13750000298023224,0.14374999701976776,-0.375],"type":"VEC3"},{"bufferView":13,"componentType":5126,"count":96,"max":[1,1,1],"min":[-1,-1,-1],"type":"VEC3"},{"bufferView":14,"componentType":5126,"count":96,"max":[0.5249624848365784,0.578125],"min":[0.0054687499068677425,0],"type":"VEC2"},{"bufferView":15,"componentType":5123,"count":132,"max":[95],"min":[0],"type":"SCALAR"},{"bufferView":16,"componentType":5126,"count":120,"max":[0.03437500074505806,0.625,0.03437500074505806],"min":[-0.03437500074505806,-0.125,-0.03437500074505806],"type":"VEC3"},{"bufferView":17,"componentType":5126,"count":120,"max":[1,1,1],"min":[-1,-1,-1],"type":"VEC3"},{"bufferView":18,"componentType":5126,"count":120,"max":[0.4678468704223633,0.609375],"min":[0.2821531295776367,0.28125],"type":"VEC2"},{"bufferView":19,"componentType":5123,"count":144,"max":[119],"min":[0],"type":"SCALAR"},{"bufferView":20,"componentType":5126,"count":7,"max":[0.25],"min":[0],"type":"SCALAR"},{"bufferView":21,"componentType":5126,"count":7,"max":[0,-0.3187499940395355,0],"min":[0,-0.375,0],"type":"VEC3"},{"bufferView":22,"componentType":5126,"count":7,"max":[0.25],"min":[0],"type":"SCALAR"},{"bufferView":23,"componentType":5126,"count":7,"max":[0,0.05624999850988388,0],"min":[0,0,0],"type":"VEC3"}],"materials":[{"pbrMetallicRoughness":{"metallicFactor":0,"roughnessFactor":1,"baseColorTexture":{"index":0}},"alphaMode":"MASK","alphaCutoff":0.05,"doubleSided":true}],"textures":[{"sampler":0,"source":0,"name":"texture"}],"samplers":[{"magFilter":9728,"minFilter":9728,"wrapS":33071,"wrapT":33071}],"images":[{"mimeType":"image/png","uri":"data:image/png;base64,"}],"meshes":[{"primitives":[{"mode":4,"attributes":{"POSITION":0,"NORMAL":1,"TEXCOORD_0":2},"indices":3,"material":0}]},{"primitives":[{"mode":4,"attributes":{"POSITION":4,"NORMAL":5,"TEXCOORD_0":6},"indices":7,"material":0}]},{"primitives":[{"mode":4,"attributes":{"POSITION":8,"NORMAL":9,"TEXCOORD_0":10},"indices":11,"material":0}]},{"primitives":[{"mode":4,"attributes":{"POSITION":12,"NORMAL":13,"TEXCOORD_0":14},"indices":15,"material":0}]},{"primitives":[{"mode":4,"attributes":{"POSITION":16,"NORMAL":17,"TEXCOORD_0":18},"indices":19,"material":0}]}],"animations":[{"name":"Hit","samplers":[{"input":20,"output":21,"interpolation":"LINEAR"},{"input":22,"output":23,"interpolation":"LINEAR"}],"channels":[{"sampler":0,"target":{"node":4,"path":"translation"}},{"sampler":1,"target":{"node":6,"path":"translation"}}]}]}