{"asset":{"version":"2.0","generator":"Blockbench 5.0.5 glTF exporter"},"scenes":[{"nodes":[2],"name":"blockbench_export"}],"scene":0,"nodes":[{"name":"sphere","mesh":0},{"rotation":[-0.7071067811865475,0,0,0.7071067811865476],"translation":[-0.00625,-0.05625,-0.29375],"name":"tube","mesh":1},{"name":"tu casita","children":[0,1]}],"bufferViews":[{"buffer":0,"byteOffset":0,"byteLength":1584,"target":34962,"byteStride":12},{"buffer":0,"byteOffset":1584,"byteLength":1584,"target":34962,"byteStride":12},{"buffer":0,"byteOffset":3168,"byteLength":1056,"target":34962,"byteStride":8},{"buffer":0,"byteOffset":4224,"byteLength":360,"target":34963},{"buffer":0,"byteOffset":4584,"byteLength":1344,"target":34962,"byteStride":12},{"buffer":0,"byteOffset":5928,"byteLength":1344,"target":34962,"byteStride":12},{"buffer":0,"byteOffset":7272,"byteLength":896,"target":34962,"byteStride":8},{"buffer":0,"byteOffset":8168,"byteLength":336,"target":34963}],"buffers":[{"byteLength":8504,"uri":"data:application/octet-stream;base64,"}],"accessors":[{"bufferView":0,"componentType":5126,"count":132,"max":[0.5,0.5,0.5],"min":[-0.5,0,-0.5],"type":"VEC3"},{"bufferView":1,"componentType":5126,"count":132,"max":[0.9659256339073181,0.9659256339073181,0.9659256339073181],"min":[-0.9659256339073181,0.25881898403167725,-0.9659256339073181],"type":"VEC3"},{"bufferView":2,"componentType":5126,"count":132,"max":[0.871554970741272,0.9889674782752991],"min":[0.003444999922066927,0],"type":"VEC2"},{"bufferView":3,"componentType":5123,"count":180,"max":[131],"min":[0],"type":"SCALAR"},{"bufferView":4,"componentType":5126,"count":112,"max":[0.1875,0.36250001192092896,0.26875001192092896],"min":[-0.1875,0.13750000298023224,0.046745624393224716],"type":"VEC3"},{"bufferView":5,"componentType":5126,"count":112,"max":[1,1,1],"min":[-1,-1,-1],"type":"VEC3"},{"bufferView":6,"componentType":5126,"count":112,"max":[0.7984374761581421,0.675000011920929],"min":[0.00014062499394640326,0],"type":"VEC2"},{"bufferView":7,"componentType":5123,"count":168,"max":[111],"min":[0],"type":"SCALAR"}],"materials":[{"pbrMetallicRoughness":{"metallicFactor":0,"roughnessFactor":1,"baseColorTexture":{"index":0}},"alphaMode":"MASK","alphaCutoff":0.05,"doubleSided":true}],"textures":[{"sampler":0,"source":0,"name":"textura.png"}],"samplers":[{"magFilter":9728,"minFilter":9728,"wrapS":33071,"wrapT":33071}],"images":[{"mimeType":"image/png","uri":"data:image/png;base64,"}],"meshes":[{"primitives":[{"mode":4,"attributes":{"POSITION":0,"NORMAL":1,"TEXCOORD_0":2},"indices":3,"material":0}]},{"primitives":[{"mode":4,"attributes":{"POSITION":4,"NORMAL":5,"TEXCOORD_0":6},"indices":7,"material":0}]}]}