{"asset":{"version":"2.0","generator":"Blockbench 5.0.5 glTF exporter"},"scenes":[{"nodes":[12],"name":"blockbench_export"}],"scene":0,"nodes":[{"translation":[0.0625,0,0],"name":"cone","mesh":0},{"translation":[0,0.125,0.125],"name":"cone","mesh":1},{"translation":[-0.125,0,0.1875],"name":"cone","mesh":2},{"translation":[-0.1875,-0.0625,0.0625],"name":"cone","mesh":3},{"translation":[0.1875,0.0625,0.0625],"name":"cone","mesh":4},{"rotation":[0,-0.6755902076156601,0,0.7372773368101241],"translation":[0.1875,0,-0.3125],"name":"group","children":[0,1,2,3,4]},{"translation":[0.0625,0,0],"name":"cone","mesh":5},{"translation":[0.1875,0.0625,0.0625],"name":"cone","mesh":6},{"translation":[-0.1875,-0.0625,0.0625],"name":"cone","mesh":7},{"translation":[-0.125,0,0.1875],"name":"cone","mesh":8},{"translation":[0,0.125,0.125],"name":"cone","mesh":9},{"rotation":[0,-0.6755902076156601,0,0.7372773368101241],"translation":[0.125,0,-0.1875],"name":"group2","children":[6,7,8,9,10]},{"translation":[-0.1875,0.125,0.3125],"name":"group3","children":[5,11]}],"bufferViews":[{"buffer":0,"byteOffset":0,"byteLength":360,"target":34962,"byteStride":12},{"buffer":0,"byteOffset":360,"byteLength":360,"target":34962,"byteStride":12},{"buffer":0,"byteOffset":720,"byteLength":240,"target":34962,"byteStride":8},{"buffer":0,"byteOffset":960,"byteLength":60,"target":34963},{"buffer":0,"byteOffset":1020,"byteLength":360,"target":34962,"byteStride":12},{"buffer":0,"byteOffset":1380,"byteLength":360,"target":34962,"byteStride":12},{"buffer":0,"byteOffset":1740,"byteLength":240,"target":34962,"byteStride":8},{"buffer":0,"byteOffset":1980,"byteLength":60,"target":34963},{"buffer":0,"byteOffset":2040,"byteLength":360,"target":34962,"byteStride":12},{"buffer":0,"byteOffset":2400,"byteLength":360,"target":34962,"byteStride":12},{"buffer":0,"byteOffset":2760,"byteLength":240,"target":34962,"byteStride":8},{"buffer":0,"byteOffset":3000,"byteLength":60,"target":34963},{"buffer":0,"byteOffset":3060,"byteLength":360,"target":34962,"byteStride":12},{"buffer":0,"byteOffset":3420,"byteLength":360,"target":34962,"byteStride":12},{"buffer":0,"byteOffset":3780,"byteLength":240,"target":34962,"byteStride":8},{"buffer":0,"byteOffset":4020,"byteLength":60,"target":34963},{"buffer":0,"byteOffset":4080,"byteLength":360,"target":34962,"byteStride":12},{"buffer":0,"byteOffset":4440,"byteLength":360,"target":34962,"byteStride":12},{"buffer":0,"byteOffset":4800,"byteLength":240,"target":34962,"byteStride":8},{"buffer":0,"byteOffset":5040,"byteLength":60,"target":34963},{"buffer":0,"byteOffset":5100,"byteLength":360,"target":34962,"byteStride":12},{"buffer":0,"byteOffset":5460,"byteLength":360,"target":34962,"byteStride":12},{"buffer":0,"byteOffset":5820,"byteLength":240,"target":34962,"byteStride":8},{"buffer":0,"byteOffset":6060,"byteLength":60,"target":34963},{"buffer":0,"byteOffset":6120,"byteLength":360,"target":34962,"byteStride":12},{"buffer":0,"byteOffset":6480,"byteLength":360,"target":34962,"byteStride":12},{"buffer":0,"byteOffset":6840,"byteLength":240,"target":34962,"byteStride":8},{"buffer":0,"byteOffset":7080,"byteLength":60,"target":34963},{"buffer":0,"byteOffset":7140,"byteLength":360,"target":34962,"byteStride":12},{"buffer":0,"byteOffset":7500,"byteLength":360,"target":34962,"byteStride":12},{"buffer":0,"byteOffset":7860,"byteLength":240,"target":34962,"byteStride":8},{"buffer":0,"byteOffset":8100,"byteLength":60,"target":34963},{"buffer":0,"byteOffset":8160,"byteLength":360,"target":34962,"byteStride":12},{"buffer":0,"byteOffset":8520,"byteLength":360,"target":34962,"byteStride":12},{"buffer":0,"byteOffset":8880,"byteLength":240,"target":34962,"byteStride":8},{"buffer":0,"byteOffset":9120,"byteLength":60,"target":34963},{"buffer":0,"byteOffset":9180,"byteLength":360,"target":34962,"byteStride":12},{"buffer":0,"byteOffset":9540,"byteLength":360,"target":34962,"byteStride":12},{"buffer":0,"byteOffset":9900,"byteLength":240,"target":34962,"byteStride":8},{"buffer":0,"byteOffset":10140,"byteLength":60,"target":34963}],"buffers":[{"byteLength":10200,"uri":"data:application/octet-stream;base64,"}],"accessors":[{"bufferView":0,"componentType":5126,"count":30,"max":[0.09160249680280685,0.625,0.03125],"min":[-0.09160249680280685,-0.125,-0.11239812523126602],"type":"VEC3"},{"bufferView":1,"componentType":5126,"count":30,"max":[0.9255842566490173,0.10111283510923386,0.9963516592979431],"min":[-0.9255842566490173,-1,-0.8543590307235718],"type":"VEC3"},{"bufferView":2,"componentType":5126,"count":30,"max":[0.7202426791191101,0.7202426195144653],"min":[0.03871031105518341,0],"type":"VEC2"},{"bufferView":3,"componentType":5123,"count":30,"max":[29],"min":[0],"type":"SCALAR"},{"bufferView":4,"componentType":5126,"count":30,"max":[0.09160249680280685,0.75,0.03125],"min":[-0.09160249680280685,-0.25,-0.11239812523126602],"type":"VEC3"},{"bufferView":5,"componentType":5126,"count":30,"max":[0.9276612401008606,0.07600480318069458,0.9979429244995117],"min":[-0.9276612401008606,-1,-0.8558923006057739],"type":"VEC3"},{"bufferView":6,"componentType":5126,"count":30,"max":[0.5323714017868042,0.765625],"min":[0.0014943750575184822,0],"type":"VEC2"},{"bufferView":7,"componentType":5123,"count":30,"max":[29],"min":[0],"type":"SCALAR"},{"bufferView":8,"componentType":5126,"count":30,"max":[0.09160249680280685,0.625,0.03125],"min":[-0.09160249680280685,-0.125,-0.11239812523126602],"type":"VEC3"},{"bufferView":9,"componentType":5126,"count":30,"max":[0.9255842566490173,0.10111283510923386,0.9963516592979431],"min":[-0.9255842566490173,-1,-0.8543590307235718],"type":"VEC3"},{"bufferView":10,"componentType":5126,"count":30,"max":[0.7514926791191101,0.734375],"min":[0.08558531105518341,0.046875],"type":"VEC2"},{"bufferView":11,"componentType":5123,"count":30,"max":[29],"min":[0],"type":"SCALAR"},{"bufferView":12,"componentType":5126,"count":30,"max":[0.09160249680280685,0.5625,0.03125],"min":[-0.09160249680280685,-0.0625,-0.11239812523126602],"type":"VEC3"},{"bufferView":13,"componentType":5126,"count":30,"max":[0.923509418964386,0.12106341123580933,0.9947590231895447],"min":[-0.923509418964386,-1,-0.8528252243995667],"type":"VEC3"},{"bufferView":14,"componentType":5126,"count":30,"max":[0.8142884373664856,0.7986634373664856],"min":[0.36407703161239624,0.010962486267089844],"type":"VEC2"},{"bufferView":15,"componentType":5123,"count":30,"max":[29],"min":[0],"type":"SCALAR"},{"bufferView":16,"componentType":5126,"count":30,"max":[0.09160249680280685,0.6875,0.03125],"min":[-0.09160249680280685,-0.1875,-0.11239812523126602],"type":"VEC3"},{"bufferView":17,"componentType":5126,"count":30,"max":[0.9268420934677124,0.0867859274148941,0.9973157048225403],"min":[-0.9268420934677124,-1,-0.8552878499031067],"type":"VEC3"},{"bufferView":18,"componentType":5126,"count":30,"max":[0.7182124853134155,0.71875],"min":[0.051506407558918,0.09375],"type":"VEC2"},{"bufferView":19,"componentType":5123,"count":30,"max":[29],"min":[0],"type":"SCALAR"},{"bufferView":20,"componentType":5126,"count":30,"max":[0.09160249680280685,0.625,0.03125],"min":[-0.09160249680280685,-0.125,-0.11239812523126602],"type":"VEC3"},{"bufferView":21,"componentType":5126,"count":30,"max":[0.9255842566490173,0.10111283510923386,0.9963516592979431],"min":[-0.9255842566490173,-1,-0.8543590307235718],"type":"VEC3"},{"bufferView":22,"componentType":5126,"count":30,"max":[0.7202426791191101,0.6889926195144653],"min":[0.14213672280311584,0.28125],"type":"VEC2"},{"bufferView":23,"componentType":5123,"count":30,"max":[29],"min":[0],"type":"SCALAR"},{"bufferView":24,"componentType":5126,"count":30,"max":[0.09160249680280685,0.6875,0.03125],"min":[-0.09160249680280685,-0.1875,-0.11239812523126602],"type":"VEC3"},{"bufferView":25,"componentType":5126,"count":30,"max":[0.9268420934677124,0.0867859274148941,0.9973157048225403],"min":[-0.9268420934677124,-1,-0.8552878499031067],"type":"VEC3"},{"bufferView":26,"componentType":5126,"count":30,"max":[0.7807124853134155,0.641905665397644],"min":[0.098381407558918,0.09375],"type":"VEC2"},{"bufferView":27,"componentType":5123,"count":30,"max":[29],"min":[0],"type":"SCALAR"},{"bufferView":28,"componentType":5126,"count":30,"max":[0.09160249680280685,0.5625,0.03125],"min":[-0.09160249680280685,-0.0625,-0.11239812523126602],"type":"VEC3"},{"bufferView":29,"componentType":5126,"count":30,"max":[0.923509418964386,0.12106341123580933,0.9947590231895447],"min":[-0.923509418964386,-1,-0.8528252243995667],"type":"VEC3"},{"bufferView":30,"componentType":5126,"count":30,"max":[0.8142884373664856,0.7986634373664856],"min":[0.4606139063835144,0.234375],"type":"VEC2"},{"bufferView":31,"componentType":5123,"count":30,"max":[29],"min":[0],"type":"SCALAR"},{"bufferView":32,"componentType":5126,"count":30,"max":[0.09160249680280685,0.625,0.03125],"min":[-0.09160249680280685,-0.125,-0.11239812523126602],"type":"VEC3"},{"bufferView":33,"componentType":5126,"count":30,"max":[0.9255842566490173,0.10111283510923386,0.9963516592979431],"min":[-0.9255842566490173,-1,-0.8543590307235718],"type":"VEC3"},{"bufferView":34,"componentType":5126,"count":30,"max":[0.7807124853134155,0.7514926195144653],"min":[0.12965811789035797,0.140625],"type":"VEC2"},{"bufferView":35,"componentType":5123,"count":30,"max":[29],"min":[0],"type":"SCALAR"},{"bufferView":36,"componentType":5126,"count":30,"max":[0.09160249680280685,0.75,0.03125],"min":[-0.09160249680280685,-0.25,-0.11239812523126602],"type":"VEC3"},{"bufferView":37,"componentType":5126,"count":30,"max":[0.9276612401008606,0.07600480318069458,0.9979429244995117],"min":[-0.9276612401008606,-1,-0.8558923006057739],"type":"VEC3"},{"bufferView":38,"componentType":5126,"count":30,"max":[0.6713374853134155,0.78125],"min":[0.007431406062096357,0],"type":"VEC2"},{"bufferView":39,"componentType":5123,"count":30,"max":[29],"min":[0],"type":"SCALAR"}],"materials":[{"pbrMetallicRoughness":{"metallicFactor":0,"roughnessFactor":1,"baseColorTexture":{"index":0}},"alphaMode":"MASK","alphaCutoff":0.05,"doubleSided":true}],"textures":[{"sampler":0,"source":0,"name":"texture.png"}],"samplers":[{"magFilter":9728,"minFilter":9728,"wrapS":33071,"wrapT":33071}],"images":[{"mimeType":"image/png","uri":"data:image/png;base64,"}],"meshes":[{"primitives":[{"mode":4,"attributes":{"POSITION":0,"NORMAL":1,"TEXCOORD_0":2},"indices":3,"material":0}]},{"primitives":[{"mode":4,"attributes":{"POSITION":4,"NORMAL":5,"TEXCOORD_0":6},"indices":7,"material":0}]},{"primitives":[{"mode":4,"attributes":{"POSITION":8,"NORMAL":9,"TEXCOORD_0":10},"indices":11,"material":0}]},{"primitives":[{"mode":4,"attributes":{"POSITION":12,"NORMAL":13,"TEXCOORD_0":14},"indices":15,"material":0}]},{"primitives":[{"mode":4,"attributes":{"POSITION":16,"NORMAL":17,"TEXCOORD_0":18},"indices":19,"material":0}]},{"primitives":[{"mode":4,"attributes":{"POSITION":20,"NORMAL":21,"TEXCOORD_0":22},"indices":23,"material":0}]},{"primitives":[{"mode":4,"attributes":{"POSITION":24,"NORMAL":25,"TEXCOORD_0":26},"indices":27,"material":0}]},{"primitives":[{"mode":4,"attributes":{"POSITION":28,"NORMAL":29,"TEXCOORD_0":30},"indices":31,"material":0}]},{"primitives":[{"mode":4,"attributes":{"POSITION":32,"NORMAL":33,"TEXCOORD_0":34},"indices":35,"material":0}]},{"primitives":[{"mode":4,"attributes":{"POSITION":36,"NORMAL":37,"TEXCOORD_0":38},"indices":39,"material":0}]}]}