{"asset":{"version":"2.0","generator":"Blockbench 5.0.2 glTF exporter"},"scenes":[{"nodes":[14],"name":"blockbench_export"}],"scene":0,"nodes":[{"translation":[0,-0.015625,-0.125],"name":"cabeza","mesh":0},{"rotation":[0.7071067811865475,0,0,0.7071067811865476],"translation":[0,-0.09375,-0.0625],"name":"pico","mesh":1},{"rotation":[-0.02181488503456112,0,0,0.9997620270799091],"translation":[0,0.1875,0.3125],"name":"group4","children":[0,1]},{"translation":[0,-0.125,0.1875],"name":"torus","mesh":2},{"translation":[0,0.203125,0.2],"name":"sphere","mesh":3},{"rotation":[0.043619387365336,0,0,0.9990482215818578],"name":"cabeza","children":[2,3,4]},{"name":"cuerpo","mesh":4},{"rotation":[0,0,-0.13052619222005157,0.9914448613738104],"translation":[-0.425,0.09999999999999998,0],"name":"cone","mesh":5},{"rotation":[0,0,0.13052619222005157,0.9914448613738104],"translation":[0.425,0.09999999999999998,0],"name":"cone","mesh":6},{"rotation":[0.043619387365336,0,0,0.9990482215818578],"translation":[0,-0.6875,0.125],"name":"cuerpo","children":[6,7,8]},{"rotation":[-0.25881904510252074,0,0,0.9659258262890683],"translation":[0,-0.375,0.1875],"name":"pata2","mesh":7},{"translation":[0.125,-1.125,0.125],"name":"group","children":[10]},{"rotation":[-0.25881904510252074,0,0,0.9659258262890683],"translation":[0,-0.384728125,0.1521875],"name":"pata2","mesh":8},{"translation":[-0.125,-1.125,0.0625],"name":"group2","children":[12]},{"rotation":[-0.02181488503456112,0,0,0.9997620270799091],"translation":[0,1,-0.1875],"name":"group3","children":[5,9,11,13]}],"bufferViews":[{"buffer":0,"byteOffset":0,"byteLength":3168,"target":34962,"byteStride":12},{"buffer":0,"byteOffset":3168,"byteLength":3168,"target":34962,"byteStride":12},{"buffer":0,"byteOffset":6336,"byteLength":2112,"target":34962,"byteStride":8},{"buffer":0,"byteOffset":8448,"byteLength":720,"target":34963},{"buffer":0,"byteOffset":9168,"byteLength":1044,"target":34962,"byteStride":12},{"buffer":0,"byteOffset":10212,"byteLength":1044,"target":34962,"byteStride":12},{"buffer":0,"byteOffset":11256,"byteLength":696,"target":34962,"byteStride":8},{"buffer":0,"byteOffset":11952,"byteLength":176,"target":34963},{"buffer":0,"byteOffset":12128,"byteLength":4608,"target":34962,"byteStride":12},{"buffer":0,"byteOffset":16736,"byteLength":4608,"target":34962,"byteStride":12},{"buffer":0,"byteOffset":21344,"byteLength":3072,"target":34962,"byteStride":8},{"buffer":0,"byteOffset":24416,"byteLength":1152,"target":34963},{"buffer":0,"byteOffset":25568,"byteLength":3168,"target":34962,"byteStride":12},{"buffer":0,"byteOffset":28736,"byteLength":3168,"target":34962,"byteStride":12},{"buffer":0,"byteOffset":31904,"byteLength":2112,"target":34962,"byteStride":8},{"buffer":0,"byteOffset":34016,"byteLength":720,"target":34963},{"buffer":0,"byteOffset":34736,"byteLength":3168,"target":34962,"byteStride":12},{"buffer":0,"byteOffset":37904,"byteLength":3168,"target":34962,"byteStride":12},{"buffer":0,"byteOffset":41072,"byteLength":2112,"target":34962,"byteStride":8},{"buffer":0,"byteOffset":43184,"byteLength":720,"target":34963},{"buffer":0,"byteOffset":43904,"byteLength":864,"target":34962,"byteStride":12},{"buffer":0,"byteOffset":44768,"byteLength":864,"target":34962,"byteStride":12},{"buffer":0,"byteOffset":45632,"byteLength":576,"target":34962,"byteStride":8},{"buffer":0,"byteOffset":46208,"byteLength":144,"target":34963},{"buffer":0,"byteOffset":46352,"byteLength":864,"target":34962,"byteStride":12},{"buffer":0,"byteOffset":47216,"byteLength":864,"target":34962,"byteStride":12},{"buffer":0,"byteOffset":48080,"byteLength":576,"target":34962,"byteStride":8},{"buffer":0,"byteOffset":48656,"byteLength":144,"target":34963},{"buffer":0,"byteOffset":48800,"byteLength":192,"target":34962,"byteStride":12},{"buffer":0,"byteOffset":48992,"byteLength":192,"target":34962,"byteStride":12},{"buffer":0,"byteOffset":49184,"byteLength":128,"target":34962,"byteStride":8},{"buffer":0,"byteOffset":49312,"byteLength":36,"target":34963},{"buffer":0,"byteOffset":49348,"byteLength":192,"target":34962,"byteStride":12},{"buffer":0,"byteOffset":49540,"byteLength":192,"target":34962,"byteStride":12},{"buffer":0,"byteOffset":49732,"byteLength":128,"target":34962,"byteStride":8},{"buffer":0,"byteOffset":49860,"byteLength":36,"target":34963},{"buffer":0,"byteOffset":49896,"byteLength":4},{"buffer":0,"byteOffset":49900,"byteLength":16},{"buffer":0,"byteOffset":49916,"byteLength":4},{"buffer":0,"byteOffset":49920,"byteLength":12},{"buffer":0,"byteOffset":49932,"byteLength":4},{"buffer":0,"byteOffset":49936,"byteLength":16},{"buffer":0,"byteOffset":49952,"byteLength":20},{"buffer":0,"byteOffset":49972,"byteLength":80},{"buffer":0,"byteOffset":50052,"byteLength":4},{"buffer":0,"byteOffset":50056,"byteLength":12},{"buffer":0,"byteOffset":50068,"byteLength":20},{"buffer":0,"byteOffset":50088,"byteLength":80},{"buffer":0,"byteOffset":50168,"byteLength":4},{"buffer":0,"byteOffset":50172,"byteLength":12},{"buffer":0,"byteOffset":50184,"byteLength":4},{"buffer":0,"byteOffset":50188,"byteLength":16},{"buffer":0,"byteOffset":50204,"byteLength":4},{"buffer":0,"byteOffset":50208,"byteLength":16},{"buffer":0,"byteOffset":50224,"byteLength":8},{"buffer":0,"byteOffset":50232,"byteLength":24}],"buffers":[{"byteLength":50256,"uri":"data:application/octet-stream;base64,"}],"accessors":[{"bufferView":0,"componentType":5126,"count":264,"max":[0.28125,0.2906250059604645,0.28125],"min":[-0.28125,-0.2906250059604645,-0.28125],"type":"VEC3"},{"bufferView":1,"componentType":5126,"count":264,"max":[0.9707059860229492,0.982125461101532,0.9707069396972656],"min":[-0.9707059860229492,-0.982125461101532,-0.9707069396972656],"type":"VEC3"},{"bufferView":2,"componentType":5126,"count":264,"max":[0.8303109407424927,0.7112021446228027],"min":[0.007528750225901604,0],"type":"VEC2"},{"bufferView":3,"componentType":5123,"count":360,"max":[263],"min":[0],"type":"SCALAR"},{"bufferView":4,"componentType":5126,"count":87,"max":[0.125,0.3843750059604645,0.08437500149011612],"min":[-0.125,0.11562500149011612,-0.140625],"type":"VEC3"},{"bufferView":5,"componentType":5126,"count":87,"max":[0.9154311418533325,0.4439481198787689,0.9449753165245056],"min":[-0.9154311418533325,-1,-0.8974915742874146],"type":"VEC3"},{"bufferView":6,"componentType":5126,"count":87,"max":[0.53125,0.48557186126708984],"min":[0,0],"type":"VEC2"},{"bufferView":7,"componentType":5123,"count":87,"max":[86],"min":[0],"type":"SCALAR"},{"bufferView":8,"componentType":5126,"count":384,"max":[0.28125,0.06690937280654907,0.28125],"min":[-0.28125,-0.06690937280654907,-0.28125],"type":"VEC3"},{"bufferView":9,"componentType":5126,"count":384,"max":[0.9169043898582458,0.9303368330001831,0.9169043898582458],"min":[-0.9169043898582458,-0.9303369522094727,-0.9169043898582458],"type":"VEC3"},{"bufferView":10,"componentType":5126,"count":384,"max":[0.8693884611129761,0.8125],"min":[0.004424375016242266,0.015110611915588379],"type":"VEC2"},{"bufferView":11,"componentType":5123,"count":576,"max":[383],"min":[0],"type":"SCALAR"},{"bufferView":12,"componentType":5126,"count":264,"max":[0.4375,0.35626813769340515,0.4312500059604645],"min":[-0.4375,-0.375,-0.4312500059604645],"type":"VEC3"},{"bufferView":13,"componentType":5126,"count":264,"max":[0.9542834162712097,0.9888882040977478,0.9554943442344666],"min":[-0.9542825222015381,-0.9747210144996643,-0.9554943442344666],"type":"VEC3"},{"bufferView":14,"componentType":5126,"count":264,"max":[0.8048387765884399,0.71875],"min":[0.0022437500301748514,0],"type":"VEC2"},{"bufferView":15,"componentType":5123,"count":360,"max":[263],"min":[0],"type":"SCALAR"},{"bufferView":16,"componentType":5126,"count":264,"max":[0.3872593641281128,0.625,0.375],"min":[-0.3872593641281128,-0.5874999761581421,-0.375],"type":"VEC3"},{"bufferView":17,"componentType":5126,"count":264,"max":[0.9992422461509705,0.9119988679885864,0.9981845617294312],"min":[-0.9992422461509705,-0.9182095527648926,-0.9981845617294312],"type":"VEC3"},{"bufferView":18,"componentType":5126,"count":264,"max":[0.5577856302261353,0.5415596961975098],"min":[0.0016828124644234776,0],"type":"VEC2"},{"bufferView":19,"componentType":5123,"count":360,"max":[263],"min":[0],"type":"SCALAR"},{"bufferView":20,"componentType":5126,"count":72,"max":[0.1402793675661087,0.4713856279850006,0.140625],"min":[-0.0625,-0.2982274889945984,-0.140625],"type":"VEC3"},{"bufferView":21,"componentType":5126,"count":72,"max":[0.9985764026641846,0.32750025391578674,0.9015273451805115],"min":[-0.9467687606811523,-0.6488397717475891,-0.9015273451805115],"type":"VEC3"},{"bufferView":22,"componentType":5126,"count":72,"max":[0.5890346765518188,0.772362470626831],"min":[0.009056249633431435,0],"type":"VEC2"},{"bufferView":23,"componentType":5123,"count":72,"max":[71],"min":[0],"type":"SCALAR"},{"bufferView":24,"componentType":5126,"count":72,"max":[0.0625,0.4713856279850006,0.140625],"min":[-0.1402793675661087,-0.2982274889945984,-0.140625],"type":"VEC3"},{"bufferView":25,"componentType":5126,"count":72,"max":[0.9467687606811523,0.32750025391578674,0.9015273451805115],"min":[-0.9985764026641846,-0.6488397717475891,-0.9015273451805115],"type":"VEC3"},{"bufferView":26,"componentType":5126,"count":72,"max":[0.49528467655181885,0.772362470626831],"min":[0.009056249633431435,0],"type":"VEC2"},{"bufferView":27,"componentType":5123,"count":72,"max":[71],"min":[0],"type":"SCALAR"},{"bufferView":28,"componentType":5126,"count":16,"max":[0.109375,0.453125,0.046875],"min":[-0.109375,0.046875,-0.046875],"type":"VEC3"},{"bufferView":29,"componentType":5126,"count":16,"max":[0.9656157493591309,0.2599734663963318,0.9934089183807373],"min":[-0.9656157493591309,-1,-0.9934089183807373],"type":"VEC3"},{"bufferView":30,"componentType":5126,"count":16,"max":[0.0625,0.25194376707077026],"min":[0,0],"type":"VEC2"},{"bufferView":31,"componentType":5123,"count":18,"max":[15],"min":[0],"type":"SCALAR"},{"bufferView":32,"componentType":5126,"count":16,"max":[0.125,0.453125,0.046875],"min":[-0.125,0.046875,-0.046875],"type":"VEC3"},{"bufferView":33,"componentType":5126,"count":16,"max":[0.9557790160179138,1,0.9934089183807373],"min":[-0.9557790160179138,-0.29408586025238037,-0.9934089183807373],"type":"VEC3"},{"bufferView":34,"componentType":5126,"count":16,"max":[0.6875,0.9375],"min":[0.002758125076070428,0],"type":"VEC2"},{"bufferView":35,"componentType":5123,"count":18,"max":[15],"min":[0],"type":"SCALAR"},{"bufferView":36,"componentType":5126,"count":1,"max":[0],"min":[0],"type":"SCALAR"},{"bufferView":37,"componentType":5126,"count":1,"max":[0.30070579051971436,0,0,0.9537169337272644],"min":[0.30070579051971436,0,0,0.9537169337272644],"type":"VEC4"},{"bufferView":38,"componentType":5126,"count":1,"max":[0],"min":[0],"type":"SCALAR"},{"bufferView":39,"componentType":5126,"count":1,"max":[0,-0.0625,0.375],"min":[0,-0.0625,0.375],"type":"VEC3"},{"bufferView":40,"componentType":5126,"count":1,"max":[0],"min":[0],"type":"SCALAR"},{"bufferView":41,"componentType":5126,"count":1,"max":[0.3214394748210907,0,0,0.9469301104545593],"min":[0.3214394748210907,0,0,0.9469301104545593],"type":"VEC4"},{"bufferView":42,"componentType":5126,"count":5,"max":[0.4686500132083893],"min":[0],"type":"SCALAR"},{"bufferView":43,"componentType":5126,"count":5,"max":[0.751839816570282,0,0,0.9469301104545593],"min":[0.3214394748210907,0,0,0.659345805644989],"type":"VEC4"},{"bufferView":44,"componentType":5126,"count":1,"max":[0],"min":[0],"type":"SCALAR"},{"bufferView":45,"componentType":5126,"count":1,"max":[0.125,-1.0625,-0.0625],"min":[0.125,-1.0625,-0.0625],"type":"VEC3"},{"bufferView":46,"componentType":5126,"count":5,"max":[0.4686500132083893],"min":[0],"type":"SCALAR"},{"bufferView":47,"componentType":5126,"count":5,"max":[0.7372773289680481,0,0,0.9537169337272644],"min":[0.30070579051971436,0,0,0.6755902171134949],"type":"VEC4"},{"bufferView":48,"componentType":5126,"count":1,"max":[0],"min":[0],"type":"SCALAR"},{"bufferView":49,"componentType":5126,"count":1,"max":[-0.125,-1.0625,-0.0625],"min":[-0.125,-1.0625,-0.0625],"type":"VEC3"},{"bufferView":50,"componentType":5126,"count":1,"max":[0.2231599986553192],"min":[0.2231599986553192],"type":"SCALAR"},{"bufferView":51,"componentType":5126,"count":1,"max":[0.258819043636322,0,0,0.9659258127212524],"min":[0.258819043636322,0,0,0.9659258127212524],"type":"VEC4"},{"bufferView":52,"componentType":5126,"count":1,"max":[0.2231599986553192],"min":[0.2231599986553192],"type":"SCALAR"},{"bufferView":53,"componentType":5126,"count":1,"max":[-0.5555702447891235,0,0,0.8314695954322815],"min":[-0.5555702447891235,0,0,0.8314695954322815],"type":"VEC4"},{"bufferView":54,"componentType":5126,"count":2,"max":[0.2231599986553192],"min":[0],"type":"SCALAR"},{"bufferView":55,"componentType":5126,"count":2,"max":[0,0.1875,0.25],"min":[0,0.1875,0.25],"type":"VEC3"}],"materials":[{"pbrMetallicRoughness":{"metallicFactor":0,"roughnessFactor":1,"baseColorTexture":{"index":0}},"alphaMode":"MASK","alphaCutoff":0.05,"doubleSided":true},{"pbrMetallicRoughness":{"metallicFactor":0,"roughnessFactor":1,"baseColorTexture":{"index":1}},"alphaMode":"MASK","alphaCutoff":0.05,"doubleSided":true},{"pbrMetallicRoughness":{"metallicFactor":0,"roughnessFactor":1,"baseColorTexture":{"index":2}},"alphaMode":"MASK","alphaCutoff":0.05,"doubleSided":true},{"pbrMetallicRoughness":{"metallicFactor":0,"roughnessFactor":1,"baseColorTexture":{"index":3}},"alphaMode":"MASK","alphaCutoff":0.05,"doubleSided":true},{"pbrMetallicRoughness":{"metallicFactor":0,"roughnessFactor":1,"baseColorTexture":{"index":4}},"alphaMode":"MASK","alphaCutoff":0.05,"doubleSided":true},{"pbrMetallicRoughness":{"metallicFactor":0,"roughnessFactor":1,"baseColorTexture":{"index":5}},"alphaMode":"MASK","alphaCutoff":0.05,"doubleSided":true},{"pbrMetallicRoughness":{"metallicFactor":0,"roughnessFactor":1,"baseColorTexture":{"index":6}},"alphaMode":"MASK","alphaCutoff":0.05,"doubleSided":true},{"pbrMetallicRoughness":{"metallicFactor":0,"roughnessFactor":1},"alphaMode":"MASK","alphaCutoff":0.05,"doubleSided":true},{"pbrMetallicRoughness":{"metallicFactor":0,"roughnessFactor":1,"baseColorTexture":{"index":7}},"alphaMode":"MASK","alphaCutoff":0.05,"doubleSided":true}],"textures":[{"sampler":0,"source":0,"name":"PINGU3.png"},{"sampler":1,"source":1,"name":"PINGU8.png"},{"sampler":2,"source":2,"name":"PINGU6.png"},{"sampler":3,"source":3,"name":"PINGU.png"},{"sampler":4,"source":4,"name":"PINGU2.png"},{"sampler":5,"source":5,"name":"PINGU5.png"},{"sampler":6,"source":6,"name":"PINGU4.png"},{"sampler":7,"source":7,"name":"PINGU7.png"}],"samplers":[{"magFilter":9728,"minFilter":9728,"wrapS":33071,"wrapT":33071},{"magFilter":9728,"minFilter":9728,"wrapS":33071,"wrapT":33071},{"magFilter":9728,"minFilter":9728,"wrapS":33071,"wrapT":33071},{"magFilter":9728,"minFilter":9728,"wrapS":33071,"wrapT":33071},{"magFilter":9728,"minFilter":9728,"wrapS":33071,"wrapT":33071},{"magFilter":9728,"minFilter":9728,"wrapS":33071,"wrapT":33071},{"magFilter":9728,"minFilter":9728,"wrapS":33071,"wrapT":33071},{"magFilter":9728,"minFilter":9728,"wrapS":33071,"wrapT":33071}],"images":[{"mimeType":"image/png","uri":"data:image/png;base64,"},{"mimeType":"image/png","uri":"data:image/png;base64,"},{"mimeType":"image/png","uri":"data:image/png;base64,"},{"mimeType":"image/png","uri":"data:image/png;base64,"},{"mimeType":"image/png","uri":"data:image/png;base64,"},{"mimeType":"image/png","uri":"data:image/png;base64,"},{"mimeType":"image/png","uri":"data:image/png;base64,"},{"mimeType":"image/png","uri":"data:image/png;base64,"}],"meshes":[{"primitives":[{"mode":4,"attributes":{"POSITION":0,"NORMAL":1,"TEXCOORD_0":2},"indices":3,"material":0}]},{"primitives":[{"mode":4,"attributes":{"POSITION":4,"NORMAL":5,"TEXCOORD_0":6},"indices":7,"material":1}]},{"primitives":[{"mode":4,"attributes":{"POSITION":8,"NORMAL":9,"TEXCOORD_0":10},"indices":11,"material":2}]},{"primitives":[{"mode":4,"attributes":{"POSITION":12,"NORMAL":13,"TEXCOORD_0":14},"indices":15,"material":3}]},{"primitives":[{"mode":4,"attributes":{"POSITION":16,"NORMAL":17,"TEXCOORD_0":18},"indices":19,"material":4}]},{"primitives":[{"mode":4,"attributes":{"POSITION":20,"NORMAL":21,"TEXCOORD_0":22},"indices":23,"material":5}]},{"primitives":[{"mode":4,"attributes":{"POSITION":24,"NORMAL":25,"TEXCOORD_0":26},"indices":27,"material":6}]},{"primitives":[{"mode":4,"attributes":{"POSITION":28,"NORMAL":29,"TEXCOORD_0":30},"indices":31,"material":7}]},{"primitives":[{"mode":4,"attributes":{"POSITION":32,"NORMAL":33,"TEXCOORD_0":34},"indices":35,"material":8}]}],"animations":[{"name":"swim","samplers":[{"input":36,"output":37,"interpolation":"LINEAR"},{"input":38,"output":39,"interpolation":"LINEAR"},{"input":40,"output":41,"interpolation":"LINEAR"},{"input":42,"output":43,"interpolation":"LINEAR"},{"input":44,"output":45,"interpolation":"LINEAR"},{"input":46,"output":47,"interpolation":"LINEAR"},{"input":48,"output":49,"interpolation":"LINEAR"},{"input":50,"output":51,"interpolation":"LINEAR"},{"input":52,"output":53,"interpolation":"LINEAR"},{"input":54,"output":55,"interpolation":"LINEAR"}],"channels":[{"sampler":0,"target":{"node":5,"path":"rotation"}},{"sampler":1,"target":{"node":5,"path":"translation"}},{"sampler":2,"target":{"node":9,"path":"rotation"}},{"sampler":3,"target":{"node":11,"path":"rotation"}},{"sampler":4,"target":{"node":11,"path":"translation"}},{"sampler":5,"target":{"node":13,"path":"rotation"}},{"sampler":6,"target":{"node":13,"path":"translation"}},{"sampler":7,"target":{"node":14,"path":"rotation"}},{"sampler":8,"target":{"node":2,"path":"rotation"}},{"sampler":9,"target":{"node":2,"path":"translation"}}]}]}