{"asset":{"version":"2.0","generator":"Blockbench 5.0.5 glTF exporter"},"scenes":[{"nodes":[5],"name":"blockbench_export"}],"scene":0,"nodes":[{"rotation":[0,0.7071067811865475,0,0.7071067811865476],"translation":[0,0.04375000000000001,-0.03125],"name":"Receiver","mesh":0},{"translation":[0,0.11875,-0.3375],"name":"Barrel","mesh":1},{"translation":[0,-0.0875,0.09999999999999999],"name":"Grip","mesh":2},{"translation":[0,0,-0.012500000000000011],"name":"cuboid","mesh":3},{"rotation":[0,0.7071067811865475,0,0.7071067811865476],"name":"Slide","mesh":4},{"translation":[0,0.11875,-0.14375],"name":"group","children":[0,1,2,3,4]}],"bufferViews":[{"buffer":0,"byteOffset":0,"byteLength":480,"target":34962,"byteStride":12},{"buffer":0,"byteOffset":480,"byteLength":480,"target":34962,"byteStride":12},{"buffer":0,"byteOffset":960,"byteLength":320,"target":34962,"byteStride":8},{"buffer":0,"byteOffset":1280,"byteLength":120,"target":34963},{"buffer":0,"byteOffset":1400,"byteLength":1440,"target":34962,"byteStride":12},{"buffer":0,"byteOffset":2840,"byteLength":1440,"target":34962,"byteStride":12},{"buffer":0,"byteOffset":4280,"byteLength":960,"target":34962,"byteStride":8},{"buffer":0,"byteOffset":5240,"byteLength":360,"target":34963},{"buffer":0,"byteOffset":5600,"byteLength":1008,"target":34962,"byteStride":12},{"buffer":0,"byteOffset":6608,"byteLength":1008,"target":34962,"byteStride":12},{"buffer":0,"byteOffset":7616,"byteLength":672,"target":34962,"byteStride":8},{"buffer":0,"byteOffset":8288,"byteLength":252,"target":34963},{"buffer":0,"byteOffset":8540,"byteLength":672,"target":34962,"byteStride":12},{"buffer":0,"byteOffset":9212,"byteLength":672,"target":34962,"byteStride":12},{"buffer":0,"byteOffset":9884,"byteLength":448,"target":34962,"byteStride":8},{"buffer":0,"byteOffset":10332,"byteLength":168,"target":34963},{"buffer":0,"byteOffset":10500,"byteLength":1056,"target":34962,"byteStride":12},{"buffer":0,"byteOffset":11556,"byteLength":1056,"target":34962,"byteStride":12},{"buffer":0,"byteOffset":12612,"byteLength":704,"target":34962,"byteStride":8},{"buffer":0,"byteOffset":13316,"byteLength":264,"target":34963}],"buffers":[{"byteLength":13580,"uri":"data:application/octet-stream;base64,"}],"accessors":[{"bufferView":0,"componentType":5126,"count":40,"max":[0.28125,0.07500000298023224,0.03750000149011612],"min":[-0.30000001192092896,0.03125,-0.03750000149011612],"type":"VEC3"},{"bufferView":1,"componentType":5126,"count":40,"max":[1,1,1],"min":[-0.8944271802902222,-1,-1],"type":"VEC3"},{"bufferView":2,"componentType":5126,"count":40,"max":[0.125,0.125],"min":[0,0],"type":"VEC2"},{"bufferView":3,"componentType":5123,"count":60,"max":[39],"min":[0],"type":"SCALAR"},{"bufferView":4,"componentType":5126,"count":120,"max":[0.02500000037252903,0.0625,0.40156251192092896],"min":[-0.02500000037252903,0.012500000186264515,0.010937499813735485],"type":"VEC3"},{"bufferView":5,"componentType":5126,"count":120,"max":[1,1,1],"min":[-1,-1,-1],"type":"VEC3"},{"bufferView":6,"componentType":5126,"count":120,"max":[1,1],"min":[0.609375,0.2578125],"type":"VEC2"},{"bufferView":7,"componentType":5123,"count":180,"max":[119],"min":[0],"type":"SCALAR"},{"bufferView":8,"componentType":5126,"count":84,"max":[0.03750000149011612,0.18125000596046448,0.15087687969207764],"min":[-0.03750000149011612,-0.07303500175476074,-0.04374999925494194],"type":"VEC3"},{"bufferView":9,"componentType":5126,"count":84,"max":[1,0.2957952320575714,0.9552513957023621],"min":[-1,-0.978859543800354,-1],"type":"VEC3"},{"bufferView":10,"componentType":5126,"count":84,"max":[0.08749999850988388,0.06875002384185791],"min":[0,0],"type":"VEC2"},{"bufferView":11,"componentType":5123,"count":126,"max":[83],"min":[0],"type":"SCALAR"},{"bufferView":12,"componentType":5126,"count":56,"max":[0.012500000186264515,0.07500000298023224,0.08749999850988388],"min":[-0.012500000186264515,0,-0.0625],"type":"VEC3"},{"bufferView":13,"componentType":5126,"count":56,"max":[1,1,1],"min":[-1,-1,-1],"type":"VEC3"},{"bufferView":14,"componentType":5126,"count":56,"max":[0.07500000298023224,0.0625],"min":[0,0],"type":"VEC2"},{"bufferView":15,"componentType":5123,"count":84,"max":[55],"min":[0],"type":"SCALAR"},{"bufferView":16,"componentType":5126,"count":88,"max":[0.3125,0.19374999403953552,0.03750000149011612],"min":[-0.25,0.11874999850988388,-0.03750000149011612],"type":"VEC3"},{"bufferView":17,"componentType":5126,"count":88,"max":[1,1,1],"min":[-1,-1,-1],"type":"VEC3"},{"bufferView":18,"componentType":5126,"count":88,"max":[0.00004999999873689376,0.000050008296966552734],"min":[0,0],"type":"VEC2"},{"bufferView":19,"componentType":5123,"count":132,"max":[87],"min":[0],"type":"SCALAR"}],"materials":[{"pbrMetallicRoughness":{"metallicFactor":0,"roughnessFactor":1},"alphaMode":"MASK","alphaCutoff":0.05,"doubleSided":true},{"pbrMetallicRoughness":{"metallicFactor":0,"roughnessFactor":1},"alphaMode":"MASK","alphaCutoff":0.05,"doubleSided":true},{"pbrMetallicRoughness":{"metallicFactor":0,"roughnessFactor":1},"alphaMode":"MASK","alphaCutoff":0.05,"doubleSided":true}],"meshes":[{"primitives":[{"mode":4,"attributes":{"POSITION":0,"NORMAL":1,"TEXCOORD_0":2},"indices":3,"material":0}]},{"primitives":[{"mode":4,"attributes":{"POSITION":4,"NORMAL":5,"TEXCOORD_0":6},"indices":7,"material":1}]},{"primitives":[{"mode":4,"attributes":{"POSITION":8,"NORMAL":9,"TEXCOORD_0":10},"indices":11,"material":0}]},{"primitives":[{"mode":4,"attributes":{"POSITION":12,"NORMAL":13,"TEXCOORD_0":14},"indices":15,"material":0}]},{"primitives":[{"mode":4,"attributes":{"POSITION":16,"NORMAL":17,"TEXCOORD_0":18},"indices":19,"material":2}]}]}