{"asset":{"version":"2.0","generator":"Blockbench 5.0.5 glTF exporter"},"scenes":[{"nodes":[25],"name":"blockbench_export"}],"scene":0,"nodes":[{"name":"cuboid","mesh":0},{"rotation":[0,0.7071067811865475,0,0.7071067811865476],"translation":[0,0,0.012500000000000011],"name":"Slide","mesh":1},{"rotation":[0,0.7071067811865475,0,0.7071067811865476],"translation":[0,0.04375000000000001,-0.01874999999999999],"name":"Receiver","mesh":2},{"translation":[0,0.11875,-0.32499999999999996],"name":"Barrel","mesh":3},{"translation":[0,-0.0875,0.11249999999999999],"name":"Grip","mesh":4},{"translation":[0.2375,-0.0062500000000000056,-0.15625],"name":"sizeref","children":[0,1,2,3,4]},{"rotation":[-0.7071067811865475,0,0,0.7071067811865476],"translation":[0,-0.01874999999999999,0.0625],"name":"Buffer","mesh":5},{"rotation":[-0.7071067811865475,0,0,0.7071067811865476],"translation":[0,-0.01874999999999999,0.2499999999999999],"name":"Stock","mesh":6},{"translation":[0,-0.05625000000000002,1],"name":"Stock","children":[6,7]},{"rotation":[-0.7071067811865475,0,0,0.7071067811865476],"name":"Receiver","mesh":7},{"rotation":[4.329780281177466e-17,-0.7071067811865475,0.7071067811865476,4.329780281177467e-17],"translation":[0,-0.07500000000000001,0],"name":"Receiver","mesh":8},{"rotation":[-0.7071067811865475,0,0,0.7071067811865476],"name":"Receiver","mesh":9},{"rotation":[-0.7071067811865475,0,0,0.7071067811865476],"translation":[0,0,0.02500000000000001],"name":"Receiver","mesh":10},{"name":"Receiver","children":[9,10,11,12]},{"translation":[0,-0.29375,0.04375000000000001],"name":"Grip","mesh":11},{"rotation":[-0.7071067811865475,0,0,0.7071067811865476],"translation":[0,-0.07500000000000001,-0.4],"name":"Magazine","mesh":12},{"rotation":[-0.7071067811865475,0,0,0.7071067811865476],"translation":[0,0,-0.4],"name":"Barrel","mesh":13},{"rotation":[4.329780281177466e-17,-0.7071067811865475,0.7071067811865476,4.329780281177467e-17],"translation":[0,-0.07500000000000001,-0.525],"name":"Handguard","mesh":14},{"translation":[0,-0.2,-0.04999999999999999],"name":"Triggerguard","mesh":15},{"translation":[0,0.2,0.18125],"name":"Body","children":[8,13,14,15,16,17,18]},{"rotation":[-0.7071067811865475,0,0,0.7071067811865476],"translation":[0,0,0.1875],"name":"bolt","mesh":16},{"translation":[0.06875,-0.03750000000000003,-0.34375],"name":"cuboid","mesh":17},{"translation":[0,0.2,0.18125],"name":"Bolt","children":[20,21]},{"rotation":[-0.7071067811865475,0,0,0.7071067811865476],"translation":[0,0.2,0.36875],"name":"_backup_Bolt","mesh":18},{"rotation":[-0.7071067811865475,0,0,0.7071067811865476],"translation":[0,0.2,0.18125],"name":"_backup","mesh":19},{"translation":[0,0.125,-0.3125],"name":"group","children":[5,19,22,23,24]}],"bufferViews":[{"buffer":0,"byteOffset":0,"byteLength":672,"target":34962,"byteStride":12},{"buffer":0,"byteOffset":672,"byteLength":672,"target":34962,"byteStride":12},{"buffer":0,"byteOffset":1344,"byteLength":448,"target":34962,"byteStride":8},{"buffer":0,"byteOffset":1792,"byteLength":168,"target":34963},{"buffer":0,"byteOffset":1960,"byteLength":1056,"target":34962,"byteStride":12},{"buffer":0,"byteOffset":3016,"byteLength":1056,"target":34962,"byteStride":12},{"buffer":0,"byteOffset":4072,"byteLength":704,"target":34962,"byteStride":8},{"buffer":0,"byteOffset":4776,"byteLength":264,"target":34963},{"buffer":0,"byteOffset":5040,"byteLength":480,"target":34962,"byteStride":12},{"buffer":0,"byteOffset":5520,"byteLength":480,"target":34962,"byteStride":12},{"buffer":0,"byteOffset":6000,"byteLength":320,"target":34962,"byteStride":8},{"buffer":0,"byteOffset":6320,"byteLength":120,"target":34963},{"buffer":0,"byteOffset":6440,"byteLength":1440,"target":34962,"byteStride":12},{"buffer":0,"byteOffset":7880,"byteLength":1440,"target":34962,"byteStride":12},{"buffer":0,"byteOffset":9320,"byteLength":960,"target":34962,"byteStride":8},{"buffer":0,"byteOffset":10280,"byteLength":360,"target":34963},{"buffer":0,"byteOffset":10640,"byteLength":1008,"target":34962,"byteStride":12},{"buffer":0,"byteOffset":11648,"byteLength":1008,"target":34962,"byteStride":12},{"buffer":0,"byteOffset":12656,"byteLength":672,"target":34962,"byteStride":8},{"buffer":0,"byteOffset":13328,"byteLength":252,"target":34963},{"buffer":0,"byteOffset":13580,"byteLength":672,"target":34962,"byteStride":12},{"buffer":0,"byteOffset":14252,"byteLength":672,"target":34962,"byteStride":12},{"buffer":0,"byteOffset":14924,"byteLength":448,"target":34962,"byteStride":8},{"buffer":0,"byteOffset":15372,"byteLength":168,"target":34963},{"buffer":0,"byteOffset":15540,"byteLength":1512,"target":34962,"byteStride":12},{"buffer":0,"byteOffset":17052,"byteLength":1512,"target":34962,"byteStride":12},{"buffer":0,"byteOffset":18564,"byteLength":1008,"target":34962,"byteStride":8},{"buffer":0,"byteOffset":19572,"byteLength":372,"target":34963},{"buffer":0,"byteOffset":19944,"byteLength":480,"target":34962,"byteStride":12},{"buffer":0,"byteOffset":20424,"byteLength":480,"target":34962,"byteStride":12},{"buffer":0,"byteOffset":20904,"byteLength":320,"target":34962,"byteStride":8},{"buffer":0,"byteOffset":21224,"byteLength":120,"target":34963},{"buffer":0,"byteOffset":21344,"byteLength":480,"target":34962,"byteStride":12},{"buffer":0,"byteOffset":21824,"byteLength":480,"target":34962,"byteStride":12},{"buffer":0,"byteOffset":22304,"byteLength":320,"target":34962,"byteStride":8},{"buffer":0,"byteOffset":22624,"byteLength":120,"target":34963},{"buffer":0,"byteOffset":22744,"byteLength":480,"target":34962,"byteStride":12},{"buffer":0,"byteOffset":23224,"byteLength":480,"target":34962,"byteStride":12},{"buffer":0,"byteOffset":23704,"byteLength":320,"target":34962,"byteStride":8},{"buffer":0,"byteOffset":24024,"byteLength":120,"target":34963},{"buffer":0,"byteOffset":24144,"byteLength":480,"target":34962,"byteStride":12},{"buffer":0,"byteOffset":24624,"byteLength":480,"target":34962,"byteStride":12},{"buffer":0,"byteOffset":25104,"byteLength":320,"target":34962,"byteStride":8},{"buffer":0,"byteOffset":25424,"byteLength":120,"target":34963},{"buffer":0,"byteOffset":25544,"byteLength":1104,"target":34962,"byteStride":12},{"buffer":0,"byteOffset":26648,"byteLength":1104,"target":34962,"byteStride":12},{"buffer":0,"byteOffset":27752,"byteLength":736,"target":34962,"byteStride":8},{"buffer":0,"byteOffset":28488,"byteLength":276,"target":34963},{"buffer":0,"byteOffset":28764,"byteLength":672,"target":34962,"byteStride":12},{"buffer":0,"byteOffset":29436,"byteLength":672,"target":34962,"byteStride":12},{"buffer":0,"byteOffset":30108,"byteLength":448,"target":34962,"byteStride":8},{"buffer":0,"byteOffset":30556,"byteLength":168,"target":34963},{"buffer":0,"byteOffset":30724,"byteLength":672,"target":34962,"byteStride":12},{"buffer":0,"byteOffset":31396,"byteLength":672,"target":34962,"byteStride":12},{"buffer":0,"byteOffset":32068,"byteLength":448,"target":34962,"byteStride":8},{"buffer":0,"byteOffset":32516,"byteLength":168,"target":34963},{"buffer":0,"byteOffset":32684,"byteLength":480,"target":34962,"byteStride":12},{"buffer":0,"byteOffset":33164,"byteLength":480,"target":34962,"byteStride":12},{"buffer":0,"byteOffset":33644,"byteLength":320,"target":34962,"byteStride":8},{"buffer":0,"byteOffset":33964,"byteLength":120,"target":34963},{"buffer":0,"byteOffset":34084,"byteLength":672,"target":34962,"byteStride":12},{"buffer":0,"byteOffset":34756,"byteLength":672,"target":34962,"byteStride":12},{"buffer":0,"byteOffset":35428,"byteLength":448,"target":34962,"byteStride":8},{"buffer":0,"byteOffset":35876,"byteLength":168,"target":34963},{"buffer":0,"byteOffset":36044,"byteLength":336,"target":34962,"byteStride":12},{"buffer":0,"byteOffset":36380,"byteLength":336,"target":34962,"byteStride":12},{"buffer":0,"byteOffset":36716,"byteLength":224,"target":34962,"byteStride":8},{"buffer":0,"byteOffset":36940,"byteLength":84,"target":34963},{"buffer":0,"byteOffset":37024,"byteLength":600,"target":34962,"byteStride":12},{"buffer":0,"byteOffset":37624,"byteLength":600,"target":34962,"byteStride":12},{"buffer":0,"byteOffset":38224,"byteLength":400,"target":34962,"byteStride":8},{"buffer":0,"byteOffset":38624,"byteLength":144,"target":34963},{"buffer":0,"byteOffset":38768,"byteLength":672,"target":34962,"byteStride":12},{"buffer":0,"byteOffset":39440,"byteLength":672,"target":34962,"byteStride":12},{"buffer":0,"byteOffset":40112,"byteLength":448,"target":34962,"byteStride":8},{"buffer":0,"byteOffset":40560,"byteLength":168,"target":34963},{"buffer":0,"byteOffset":40728,"byteLength":672,"target":34962,"byteStride":12},{"buffer":0,"byteOffset":41400,"byteLength":672,"target":34962,"byteStride":12},{"buffer":0,"byteOffset":42072,"byteLength":448,"target":34962,"byteStride":8},{"buffer":0,"byteOffset":42520,"byteLength":168,"target":34963}],"buffers":[{"byteLength":42688,"uri":"data:application/octet-stream;base64,"}],"accessors":[{"bufferView":0,"componentType":5126,"count":56,"max":[0.012500000186264515,0.07500000298023224,0.08749999850988388],"min":[-0.012500000186264515,0,-0.0625],"type":"VEC3"},{"bufferView":1,"componentType":5126,"count":56,"max":[1,1,1],"min":[-1,-1,-1],"type":"VEC3"},{"bufferView":2,"componentType":5126,"count":56,"max":[0.07500000298023224,0.0625],"min":[0,0],"type":"VEC2"},{"bufferView":3,"componentType":5123,"count":84,"max":[55],"min":[0],"type":"SCALAR"},{"bufferView":4,"componentType":5126,"count":88,"max":[0.3125,0.19374999403953552,0.03750000149011612],"min":[-0.25,0.11874999850988388,-0.03750000149011612],"type":"VEC3"},{"bufferView":5,"componentType":5126,"count":88,"max":[1,1,1],"min":[-1,-1,-1],"type":"VEC3"},{"bufferView":6,"componentType":5126,"count":88,"max":[0.00004999999873689376,0.000050008296966552734],"min":[0,0],"type":"VEC2"},{"bufferView":7,"componentType":5123,"count":132,"max":[87],"min":[0],"type":"SCALAR"},{"bufferView":8,"componentType":5126,"count":40,"max":[0.28125,0.07500000298023224,0.03750000149011612],"min":[-0.30000001192092896,0.03125,-0.03750000149011612],"type":"VEC3"},{"bufferView":9,"componentType":5126,"count":40,"max":[1,1,1],"min":[-0.8944271802902222,-1,-1],"type":"VEC3"},{"bufferView":10,"componentType":5126,"count":40,"max":[0.125,0.125],"min":[0,0],"type":"VEC2"},{"bufferView":11,"componentType":5123,"count":60,"max":[39],"min":[0],"type":"SCALAR"},{"bufferView":12,"componentType":5126,"count":120,"max":[0.02500000037252903,0.0625,0.40156251192092896],"min":[-0.02500000037252903,0.012500000186264515,0.010937499813735485],"type":"VEC3"},{"bufferView":13,"componentType":5126,"count":120,"max":[1,1,1],"min":[-1,-1,-1],"type":"VEC3"},{"bufferView":14,"componentType":5126,"count":120,"max":[1,1],"min":[0.609375,0.2578125],"type":"VEC2"},{"bufferView":15,"componentType":5123,"count":180,"max":[119],"min":[0],"type":"SCALAR"},{"bufferView":16,"componentType":5126,"count":84,"max":[0.03750000149011612,0.18125000596046448,0.15087687969207764],"min":[-0.03750000149011612,-0.07303500175476074,-0.04374999925494194],"type":"VEC3"},{"bufferView":17,"componentType":5126,"count":84,"max":[1,0.2957952320575714,0.9552513957023621],"min":[-1,-0.978859543800354,-1],"type":"VEC3"},{"bufferView":18,"componentType":5126,"count":84,"max":[0.08749999850988388,0.06875002384185791],"min":[0,0],"type":"VEC2"},{"bufferView":19,"componentType":5123,"count":126,"max":[83],"min":[0],"type":"SCALAR"},{"bufferView":20,"componentType":5126,"count":56,"max":[0.03125,0.9375,0.03125],"min":[-0.03125,0.6875,-0.03125],"type":"VEC3"},{"bufferView":21,"componentType":5126,"count":56,"max":[1,1,1],"min":[-1,-1,-1],"type":"VEC3"},{"bufferView":22,"componentType":5126,"count":56,"max":[0.031062500551342964,0.75],"min":[0,0],"type":"VEC2"},{"bufferView":23,"componentType":5123,"count":84,"max":[55],"min":[0],"type":"SCALAR"},{"bufferView":24,"componentType":5126,"count":126,"max":[0.03750000149011612,0.9375,0.03750000149011612],"min":[-0.03750000149011612,0.65625,-0.1875],"type":"VEC3"},{"bufferView":25,"componentType":5126,"count":126,"max":[1,1,1],"min":[-1,-1,-1],"type":"VEC3"},{"bufferView":26,"componentType":5126,"count":126,"max":[0.0625,0.75],"min":[0,0],"type":"VEC2"},{"bufferView":27,"componentType":5123,"count":186,"max":[125],"min":[0],"type":"SCALAR"},{"bufferView":28,"componentType":5126,"count":40,"max":[0.05000000074505806,0.4000000059604645,0.05000000074505806],"min":[-0.05000000074505806,0.375,-0.03750000149011612],"type":"VEC3"},{"bufferView":29,"componentType":5126,"count":40,"max":[1,1,1],"min":[-1,-1,-1],"type":"VEC3"},{"bufferView":30,"componentType":5126,"count":40,"max":[0.10000000149011612,0.3999999761581421],"min":[0,0],"type":"VEC2"},{"bufferView":31,"componentType":5123,"count":60,"max":[39],"min":[0],"type":"SCALAR"},{"bufferView":32,"componentType":5126,"count":40,"max":[0.05000000074505806,0.4000000059604645,0.05000000074505806],"min":[-0.05000000074505806,-0.125,-0.03750000149011612],"type":"VEC3"},{"bufferView":33,"componentType":5126,"count":40,"max":[1,1,1],"min":[-1,-1,-1],"type":"VEC3"},{"bufferView":34,"componentType":5126,"count":40,"max":[0.10000000149011612,0.3999999761581421],"min":[0,0],"type":"VEC2"},{"bufferView":35,"componentType":5123,"count":60,"max":[39],"min":[0],"type":"SCALAR"},{"bufferView":36,"componentType":5126,"count":40,"max":[0.05000000074505806,0.1875,0.05000000074505806],"min":[-0.05000000074505806,-0.125,-0.03750000149011612],"type":"VEC3"},{"bufferView":37,"componentType":5126,"count":40,"max":[1,1,1],"min":[-1,-0.8810654878616333,-1],"type":"VEC3"},{"bufferView":38,"componentType":5126,"count":40,"max":[0.10000000149011612,0.3999999761581421],"min":[0,0],"type":"VEC2"},{"bufferView":39,"componentType":5123,"count":60,"max":[39],"min":[0],"type":"SCALAR"},{"bufferView":40,"componentType":5126,"count":40,"max":[0,0.4000000059604645,0.05000000074505806],"min":[-0.05000000074505806,0.21250000596046448,-0.03750000149011612],"type":"VEC3"},{"bufferView":41,"componentType":5126,"count":40,"max":[1,1,1],"min":[-1,-1,-1],"type":"VEC3"},{"bufferView":42,"componentType":5126,"count":40,"max":[0.10000000149011612,0.3999999761581421],"min":[0,0],"type":"VEC2"},{"bufferView":43,"componentType":5123,"count":60,"max":[39],"min":[0],"type":"SCALAR"},{"bufferView":44,"componentType":5126,"count":92,"max":[0.03750000149011612,0.18125000596046448,0.15087687969207764],"min":[-0.03750000149011612,-0.07303500175476074,-0.04374999925494194],"type":"VEC3"},{"bufferView":45,"componentType":5126,"count":92,"max":[1,1,0.9552513957023621],"min":[-1,-0.978859543800354,-1],"type":"VEC3"},{"bufferView":46,"componentType":5126,"count":92,"max":[0.08749999850988388,0.125],"min":[0,0],"type":"VEC2"},{"bufferView":47,"componentType":5123,"count":138,"max":[91],"min":[0],"type":"SCALAR"},{"bufferView":48,"componentType":5126,"count":56,"max":[0.03750000149011612,0.84375,0.03750000149011612],"min":[-0.03750000149011612,0,-0.03750000149011612],"type":"VEC3"},{"bufferView":49,"componentType":5126,"count":56,"max":[1,1,1],"min":[-1,-1,-1],"type":"VEC3"},{"bufferView":50,"componentType":5126,"count":56,"max":[0.031062500551342964,0.75],"min":[0,0],"type":"VEC2"},{"bufferView":51,"componentType":5123,"count":84,"max":[55],"min":[0],"type":"SCALAR"},{"bufferView":52,"componentType":5126,"count":56,"max":[0.03750000149011612,0.9375,0.03750000149011612],"min":[-0.03750000149011612,0,-0.03750000149011612],"type":"VEC3"},{"bufferView":53,"componentType":5126,"count":56,"max":[1,1,1],"min":[-1,-1,-1],"type":"VEC3"},{"bufferView":54,"componentType":5126,"count":56,"max":[0.031062500551342964,0.75],"min":[0,0],"type":"VEC2"},{"bufferView":55,"componentType":5123,"count":84,"max":[55],"min":[0],"type":"SCALAR"},{"bufferView":56,"componentType":5126,"count":40,"max":[0.05000000074505806,0.4000000059604645,0.05000000074505806],"min":[-0.05000000074505806,-0.125,-0.06875000149011612],"type":"VEC3"},{"bufferView":57,"componentType":5126,"count":40,"max":[1,1,1],"min":[-1,-1,-1],"type":"VEC3"},{"bufferView":58,"componentType":5126,"count":40,"max":[0.10000000149011612,0.3999999761581421],"min":[0,0],"type":"VEC2"},{"bufferView":59,"componentType":5123,"count":60,"max":[39],"min":[0],"type":"SCALAR"},{"bufferView":60,"componentType":5126,"count":56,"max":[0.012500000186264515,0.07500000298023224,0.08749999850988388],"min":[-0.012500000186264515,0,-0.0625],"type":"VEC3"},{"bufferView":61,"componentType":5126,"count":56,"max":[1,1,1],"min":[-1,-1,-1],"type":"VEC3"},{"bufferView":62,"componentType":5126,"count":56,"max":[0.07500000298023224,0.0625],"min":[0,0],"type":"VEC2"},{"bufferView":63,"componentType":5123,"count":84,"max":[55],"min":[0],"type":"SCALAR"},{"bufferView":64,"componentType":5126,"count":28,"max":[0.03750000149011612,0.5625,0.03750000149011612],"min":[-0.015533125028014183,0.375,-0.03750000149011612],"type":"VEC3"},{"bufferView":65,"componentType":5126,"count":28,"max":[1,1,1],"min":[0,-1,0],"type":"VEC3"},{"bufferView":66,"componentType":5126,"count":28,"max":[0.031062500551342964,0.75],"min":[0,0],"type":"VEC2"},{"bufferView":67,"componentType":5123,"count":42,"max":[27],"min":[0],"type":"SCALAR"},{"bufferView":68,"componentType":5126,"count":50,"max":[0.05624999850988388,0.02500000037252903,0.0062500000931322575],"min":[-0.03125,0,-0.03125],"type":"VEC3"},{"bufferView":69,"componentType":5126,"count":50,"max":[0.5144957304000854,1,0.9805806875228882],"min":[-1,-1,-1],"type":"VEC3"},{"bufferView":70,"componentType":5126,"count":50,"max":[0.125,0.0625],"min":[0,0],"type":"VEC2"},{"bufferView":71,"componentType":5123,"count":72,"max":[49],"min":[0],"type":"SCALAR"},{"bufferView":72,"componentType":5126,"count":56,"max":[0.03750000149011612,0.5625,0.03750000149011612],"min":[-0.03750000149011612,0.375,-0.03750000149011612],"type":"VEC3"},{"bufferView":73,"componentType":5126,"count":56,"max":[1,1,1],"min":[-1,-1,-1],"type":"VEC3"},{"bufferView":74,"componentType":5126,"count":56,"max":[0.031062500551342964,0.75],"min":[0,0],"type":"VEC2"},{"bufferView":75,"componentType":5123,"count":84,"max":[55],"min":[0],"type":"SCALAR"},{"bufferView":76,"componentType":5126,"count":56,"max":[0.05000000074505806,0.4000000059604645,0.05000000074505806],"min":[-0.05000000074505806,0,-0.125],"type":"VEC3"},{"bufferView":77,"componentType":5126,"count":56,"max":[1,1,1],"min":[-1,-1,-1],"type":"VEC3"},{"bufferView":78,"componentType":5126,"count":56,"max":[0.04142500087618828,0.3999999761581421],"min":[0,0],"type":"VEC2"},{"bufferView":79,"componentType":5123,"count":84,"max":[55],"min":[0],"type":"SCALAR"}],"materials":[{"pbrMetallicRoughness":{"metallicFactor":0,"roughnessFactor":1},"alphaMode":"MASK","alphaCutoff":0.05,"doubleSided":true},{"pbrMetallicRoughness":{"metallicFactor":0,"roughnessFactor":1},"alphaMode":"MASK","alphaCutoff":0.05,"doubleSided":true},{"pbrMetallicRoughness":{"metallicFactor":0,"roughnessFactor":1},"alphaMode":"MASK","alphaCutoff":0.05,"doubleSided":true},{"pbrMetallicRoughness":{"metallicFactor":0,"roughnessFactor":1},"alphaMode":"MASK","alphaCutoff":0.05,"doubleSided":true},{"pbrMetallicRoughness":{"metallicFactor":0,"roughnessFactor":1},"alphaMode":"MASK","alphaCutoff":0.05,"doubleSided":true}],"meshes":[{"primitives":[{"mode":4,"attributes":{"POSITION":0,"NORMAL":1,"TEXCOORD_0":2},"indices":3,"material":0}]},{"primitives":[{"mode":4,"attributes":{"POSITION":4,"NORMAL":5,"TEXCOORD_0":6},"indices":7,"material":1}]},{"primitives":[{"mode":4,"attributes":{"POSITION":8,"NORMAL":9,"TEXCOORD_0":10},"indices":11,"material":0}]},{"primitives":[{"mode":4,"attributes":{"POSITION":12,"NORMAL":13,"TEXCOORD_0":14},"indices":15,"material":2}]},{"primitives":[{"mode":4,"attributes":{"POSITION":16,"NORMAL":17,"TEXCOORD_0":18},"indices":19,"material":0}]},{"primitives":[{"mode":4,"attributes":{"POSITION":20,"NORMAL":21,"TEXCOORD_0":22},"indices":23,"material":1}]},{"primitives":[{"mode":4,"attributes":{"POSITION":24,"NORMAL":25,"TEXCOORD_0":26},"indices":27,"material":0}]},{"primitives":[{"mode":4,"attributes":{"POSITION":28,"NORMAL":29,"TEXCOORD_0":30},"indices":31,"material":3}]},{"primitives":[{"mode":4,"attributes":{"POSITION":32,"NORMAL":33,"TEXCOORD_0":34},"indices":35,"material":3}]},{"primitives":[{"mode":4,"attributes":{"POSITION":36,"NORMAL":37,"TEXCOORD_0":38},"indices":39,"material":3}]},{"primitives":[{"mode":4,"attributes":{"POSITION":40,"NORMAL":41,"TEXCOORD_0":42},"indices":43,"material":3}]},{"primitives":[{"mode":4,"attributes":{"POSITION":44,"NORMAL":45,"TEXCOORD_0":46},"indices":47,"material":0}]},{"primitives":[{"mode":4,"attributes":{"POSITION":48,"NORMAL":49,"TEXCOORD_0":50},"indices":51,"material":4}]},{"primitives":[{"mode":4,"attributes":{"POSITION":52,"NORMAL":53,"TEXCOORD_0":54},"indices":55,"material":4}]},{"primitives":[{"mode":4,"attributes":{"POSITION":56,"NORMAL":57,"TEXCOORD_0":58},"indices":59,"material":0}]},{"primitives":[{"mode":4,"attributes":{"POSITION":60,"NORMAL":61,"TEXCOORD_0":62},"indices":63,"material":0}]},{"primitives":[{"mode":4,"attributes":{"POSITION":64,"NORMAL":65,"TEXCOORD_0":66},"indices":67,"material":4}]},{"primitives":[{"mode":4,"attributes":{"POSITION":68,"NORMAL":69,"TEXCOORD_0":70},"indices":71,"material":4}]},{"primitives":[{"mode":4,"attributes":{"POSITION":72,"NORMAL":73,"TEXCOORD_0":74},"indices":75,"material":4}]},{"primitives":[{"mode":4,"attributes":{"POSITION":76,"NORMAL":77,"TEXCOORD_0":78},"indices":79,"material":3}]}]}